<?xml version="1.0" encoding="UTF-8"?>
<svg version="1.1" xmlns="http://www.w3.org/2000/svg" width="118" height="144">
<path d="M0 0 C15.51 0 31.02 0 47 0 C47 2.97 47 5.94 47 9 C45.2984375 9.680625 45.2984375 9.680625 43.5625 10.375 C39.95278308 11.57095806 39.95278308 11.57095806 39 14 C38.84324489 16.69633705 38.74156132 19.37148995 38.68359375 22.0703125 C38.66494263 22.77599365 38.6462915 23.4816748 38.6270752 24.20874023 C38.55872511 26.84736491 38.49860983 29.48619771 38.4375 32.125 C38.293125 38.02375 38.14875 43.9225 38 50 C49.88 50 61.76 50 74 50 C73.87625 44.121875 73.7525 38.24375 73.625 32.1875 C73.59100098 30.33535889 73.55700195 28.48321777 73.52197266 26.57495117 C73.48676498 25.10593856 73.45084353 23.63694281 73.4140625 22.16796875 C73.40270264 21.40601196 73.39134277 20.64405518 73.37963867 19.85900879 C73.27553746 16.06809403 73.1522004 14.22830059 71 11 C69.03247172 9.93753473 67.03412421 8.92862192 65 8 C65 5.36 65 2.72 65 0 C80.51 0 96.02 0 112 0 C112 2.97 112 5.94 112 9 C110.865625 9.433125 109.73125 9.86625 108.5625 10.3125 C107.386875 10.869375 106.21125 11.42625 105 12 C103.71411769 15.85764693 103.85252241 19.50276777 103.85473633 23.52294922 C103.85137772 24.39317719 103.8480191 25.26340515 103.84455872 26.16000366 C103.83504689 29.0415794 103.83310546 31.92309704 103.83203125 34.8046875 C103.82881874 36.80624414 103.82545467 38.80780055 103.82194519 40.80935669 C103.81595328 45.00751286 103.81410535 49.20564845 103.81469727 53.40380859 C103.81479887 58.78297719 103.80114862 64.16201374 103.78392506 69.54115105 C103.77280563 73.67612311 103.77077804 77.81106325 103.77130699 81.94604874 C103.77012671 83.9291746 103.76570227 85.91230129 103.75797462 87.89541245 C103.74817636 90.66978954 103.75105222 93.44388 103.75708008 96.21826172 C103.75146057 97.03713867 103.74584106 97.85601562 103.74005127 98.69970703 C103.76336744 102.92332148 104.05354142 106.14363492 106 110 C108.31 110.33 110.62 110.66 113 111 C112.67 113.97 112.34 116.94 112 120 C96.49 120 80.98 120 65 120 C65 118.02 65 116.04 65 114 C64.28714844 114.34933594 63.57429688 114.69867188 62.83984375 115.05859375 C61.88207031 115.51363281 60.92429688 115.96867187 59.9375 116.4375 C58.99777344 116.88996094 58.05804688 117.34242188 57.08984375 117.80859375 C50.27350395 120.43689165 43.24019246 120.13514571 36.03515625 120.09765625 C34.48519203 120.09553383 34.48519203 120.09553383 32.90391541 120.09336853 C29.6234134 120.08779839 26.34298117 120.07525141 23.0625 120.0625 C20.83007911 120.05748114 18.59765715 120.05291891 16.36523438 120.04882812 C10.91012961 120.03783874 5.45507661 120.02059476 0 120 C0 117.03 0 114.06 0 111 C0.94875 110.938125 1.8975 110.87625 2.875 110.8125 C6.10018318 110.36599598 6.10018318 110.36599598 7.18013 108.0038147 C8.27533477 103.99123687 8.2710169 100.26752137 8.24291992 96.12646484 C8.24481827 95.24297867 8.24671661 94.35949249 8.24867249 93.44923401 C8.25236959 90.53637751 8.24169229 87.62377174 8.23046875 84.7109375 C8.22927637 82.68502837 8.22882391 80.65911869 8.2290802 78.63320923 C8.22751725 74.39150523 8.21924085 70.14988585 8.20581055 65.90820312 C8.18879936 60.46615007 8.18499695 55.0241898 8.18575573 49.58211327 C8.1854841 45.40090039 8.18000439 41.21970786 8.17275429 37.03850174 C8.1695686 35.03140034 8.16760044 33.02429663 8.16686058 31.01719284 C8.16469721 28.21633709 8.15595357 25.41558059 8.14526367 22.61474609 C8.14571686 21.78246994 8.14617004 20.95019379 8.14663696 20.09269714 C8.12825797 16.80650204 8.04652838 14.13958514 7 11 C3.48809191 9.77030122 3.48809191 9.77030122 0 9 C0 6.03 0 3.06 0 0 Z M77 59 C77 59.66 77 60.32 77 61 C76.05447266 61.16242188 76.05447266 61.16242188 75.08984375 61.328125 C68.11765286 62.84420191 61.31617049 65.11264326 54.50585938 67.22558594 C52.95472885 67.70494934 51.40167548 68.17819547 49.84570312 68.64160156 C39.9556543 71.60071208 32.79515125 75.36477541 26.9375 84.0625 C24.89337298 89.86782074 25.7885743 96.91563822 26 103 C28.19453078 101.02146453 28.19453078 101.02146453 29.5 97.9375 C35.99211858 86.67518676 50.90449019 77.78045986 63.26220703 74.37695312 C63.83567871 74.25255859 64.40915039 74.12816406 65 74 C62.76597708 78.46804583 60.14723939 80.32733462 56 83 C56 83.66 56 84.32 56 85 C55.34 85.20625 54.68 85.4125 54 85.625 C49.92819814 87.49124252 46.31203002 89.97561527 43 93 C43 93.66 43 94.32 43 95 C42.34 95 41.68 95 41 95 C39.47372117 96.84400303 39.47372117 96.84400303 38 99.1875 C37.2265625 100.35345703 37.2265625 100.35345703 36.4375 101.54296875 C33.95048903 105.79386521 32.71634741 109.03607973 33 114 C43.77171355 114.42896204 53.55621877 113.44833532 63 108 C63 107.34 63 106.68 63 106 C63.61875 105.7525 64.2375 105.505 64.875 105.25 C67.35068687 103.79371361 67.95125002 102.62187494 69 100 C69.66 100 70.32 100 71 100 C78.78275039 86.02127358 80.50724879 73.68713858 80 58 C78.7763932 57.9254644 78.7763932 57.9254644 77 59 Z M38 64 C38.33 64.99 38.66 65.98 39 67 C40.65 66.34 42.3 65.68 44 65 C44 64.67 44 64.34 44 64 C42.02 64 40.04 64 38 64 Z " fill="#0C8989" transform="translate(2,17)"/>
<path d="M0 0 C15.51 0 31.02 0 47 0 C47 2.97 47 5.94 47 9 C45.865625 9.433125 44.73125 9.86625 43.5625 10.3125 C42.386875 10.869375 41.21125 11.42625 40 12 C38.71411769 15.85764693 38.85252241 19.50276777 38.85473633 23.52294922 C38.85137772 24.39317719 38.8480191 25.26340515 38.84455872 26.16000366 C38.83504689 29.0415794 38.83310546 31.92309704 38.83203125 34.8046875 C38.82881874 36.80624414 38.82545467 38.80780055 38.82194519 40.80935669 C38.81595328 45.00751286 38.81410535 49.20564845 38.81469727 53.40380859 C38.81479887 58.78297719 38.80114862 64.16201374 38.78392506 69.54115105 C38.77280563 73.67612311 38.77077804 77.81106325 38.77130699 81.94604874 C38.77012671 83.9291746 38.76570227 85.91230129 38.75797462 87.89541245 C38.74817636 90.66978954 38.75105222 93.44388 38.75708008 96.21826172 C38.75146057 97.03713867 38.74584106 97.85601562 38.74005127 98.69970703 C38.76336744 102.92332148 39.05354142 106.14363492 41 110 C43.31 110.33 45.62 110.66 48 111 C47.67 113.97 47.34 116.94 47 120 C31.82 119.67 16.64 119.34 1 119 C1 116.69 1 114.38 1 112 C1.60328125 111.91878906 2.2065625 111.83757812 2.828125 111.75390625 C5.68175609 110.76334726 6.27109721 109.52557989 7.75 106.9375 C8.17796875 106.20402344 8.6059375 105.47054687 9.046875 104.71484375 C9.36140625 104.14894531 9.6759375 103.58304687 10 103 C8.35 103 6.7 103 5 103 C5 105.31 5 107.62 5 110 C3.68 109.34 2.36 108.68 1 108 C1.99 105.36 2.98 102.72 4 100 C4.66 100 5.32 100 6 100 C6.28875 99.2575 6.5775 98.515 6.875 97.75 C7.82302644 95.43260203 8.84845911 93.22082885 10 91 C10.99 91 11.98 91 13 91 C13.04898438 90.40832031 13.09796875 89.81664063 13.1484375 89.20703125 C13.22320312 88.41683594 13.29796875 87.62664062 13.375 86.8125 C13.47941406 85.64654297 13.47941406 85.64654297 13.5859375 84.45703125 C14 82 14 82 15.01367188 79.67773438 C16.07022127 76.80935969 16.23089665 74.74166366 16.1953125 71.69921875 C16.18886719 70.72275391 16.18242188 69.74628906 16.17578125 68.74023438 C16.15902344 67.73283203 16.14226562 66.72542969 16.125 65.6875 C16.11597656 64.66076172 16.10695313 63.63402344 16.09765625 62.57617188 C16.07416201 60.05054101 16.04131131 57.5253919 16 55 C14.35 54.67 12.7 54.34 11 54 C10.98018066 52.89487061 10.96036133 51.78974121 10.93994141 50.65112305 C10.86389551 46.55274587 10.77517671 42.45472421 10.68261719 38.35668945 C10.64432321 36.58267229 10.60947105 34.80857736 10.578125 33.03442383 C10.53248328 30.48490601 10.47448815 27.9359237 10.4140625 25.38671875 C10.40251129 24.59287277 10.39096008 23.79902679 10.37905884 22.98112488 C10.27644615 19.15676092 10.16935934 17.25403901 8 14 C7.34 13.01 6.68 12.02 6 11 C4.03247172 9.93753473 2.03412421 8.92862192 0 8 C0 5.36 0 2.72 0 0 Z " fill="#078687" transform="translate(67,17)"/>
<path d="M0 0 C-0.17298401 2.33528415 -0.70225369 3.69177582 -2.33203125 5.37890625 C-6.57211538 9 -6.57211538 9 -9 9 C-9 9.66 -9 10.32 -9 11 C-10.4609375 12.2890625 -10.4609375 12.2890625 -12.375 13.625 C-13.00148438 14.07101563 -13.62796875 14.51703125 -14.2734375 14.9765625 C-16 16 -16 16 -18 16 C-19 13 -19 13 -19 11 C-19.391875 11.45375 -19.78375 11.9075 -20.1875 12.375 C-22.33142587 14.29714043 -24.30698009 15.01474881 -27 16 C-28.34050052 16.65213539 -29.67661368 17.31379969 -31 18 C-25.11227077 9.80837673 -10.3276827 0 0 0 Z " fill="#2C8E8F" transform="translate(67,91)"/>
<path d="M0 0 C2.60627167 3.90940751 2.32977874 7.25748712 2.36645508 11.79833984 C2.38131958 12.69782852 2.39618408 13.5973172 2.41149902 14.52406311 C2.45774799 17.50297522 2.48930787 20.48182255 2.51953125 23.4609375 C2.54585921 25.52976004 2.57261361 27.59857718 2.59977722 29.66738892 C2.65424546 34.00672726 2.70101745 38.34606975 2.74291992 42.68554688 C2.79758831 48.24658233 2.87508506 53.80703352 2.95886707 59.36769676 C3.02008421 63.64153632 3.06722757 67.91544552 3.11032677 72.18950272 C3.13306554 74.23966971 3.16063753 76.28978899 3.19312477 78.33982468 C3.23684008 81.20757585 3.26113409 84.0748662 3.28051758 86.94287109 C3.29751205 87.78980026 3.31450653 88.63672943 3.33201599 89.50932312 C3.34027033 94.13849168 3.10172501 97.2919191 0 101 C-1.485 101.495 -1.485 101.495 -3 102 C-3.66 101.34 -4.32 100.68 -5 100 C-4.01 100 -3.02 100 -2 100 C0.4328783 95.26291791 0.26993658 90.90256292 0.22705078 85.71166992 C0.22734283 84.78435059 0.22763489 83.85703125 0.22793579 82.90161133 C0.22654535 79.84446776 0.21099749 76.78756961 0.1953125 73.73046875 C0.19158136 71.6076928 0.18873486 69.48491513 0.18673706 67.36213684 C0.1791086 61.78080472 0.15946679 56.19957705 0.1373291 50.61828613 C0.11685376 44.92066867 0.10773173 39.22303429 0.09765625 33.52539062 C0.07622023 22.35021458 0.04209371 11.17511598 0 0 Z " fill="#46898A" transform="translate(10,27)"/>
<path d="M0 0 C0.33 0.66 0.66 1.32 1 2 C0.0625 4.125 0.0625 4.125 -1 6 C-0.01 6.66 0.98 7.32 2 8 C2 5.69 2 3.38 2 1 C3.65 1 5.3 1 7 1 C6.625 2.9375 6.625 2.9375 6 5 C5.01 5.495 5.01 5.495 4 6 C2.86649466 8.01669827 2.86649466 8.01669827 2 10 C0.68 10 -0.64 10 -2 10 C-2 12.31 -2 14.62 -2 17 C12.52 17 27.04 17 42 17 C42 17.33 42 17.66 42 18 C27.15 18 12.3 18 -3 18 C-3 16.02 -3 14.04 -3 12 C-4.32 12.33 -5.64 12.66 -7 13 C-6.67 12.01 -6.34 11.02 -6 10 C-5.34 10 -4.68 10 -4 10 C-4 9.01 -4 8.02 -4 7 C-4.99 6.67 -5.98 6.34 -7 6 C-6.34 6 -5.68 6 -5 6 C-5 5.34 -5 4.68 -5 4 C-3.37373596 2.61767557 -1.7074998 1.28062485 0 0 Z " fill="#61ADB0" transform="translate(70,119)"/>
<path d="M0 0 C0 0.99 0 1.98 0 3 C-0.99 3.495 -0.99 3.495 -2 4 C-2.33 4.99 -2.66 5.98 -3 7 C-7.88760013 9.63930407 -11.36202751 10.34518199 -17 10 C-17.33 9.34 -17.66 8.68 -18 8 C-17.030625 7.87625 -16.06125 7.7525 -15.0625 7.625 C-14.051875 7.41875 -13.04125 7.2125 -12 7 C-11.67 6.34 -11.34 5.68 -11 5 C-11.83789062 5.16371094 -12.67578125 5.32742187 -13.5390625 5.49609375 C-17.20517307 6.02987283 -20.67239385 6.09743025 -24.375 6.0625 C-26.24285156 6.04896484 -26.24285156 6.04896484 -28.1484375 6.03515625 C-29.55996094 6.01775391 -29.55996094 6.01775391 -31 6 C-31 5.67 -31 5.34 -31 5 C-29.19015625 4.83564453 -29.19015625 4.83564453 -27.34375 4.66796875 C-25.72911025 4.50838226 -24.11452992 4.34819381 -22.5 4.1875 C-21.31277344 4.08211914 -21.31277344 4.08211914 -20.1015625 3.97460938 C-13.29814391 3.2775378 -6.68159119 -0.62639917 0 0 Z " fill="#338E8D" transform="translate(66,126)"/>
<path d="M0 0 C0.33 0 0.66 0 1 0 C1 1.65 1 3.3 1 5 C15.85 4.505 15.85 4.505 31 4 C31.33 3.34 31.66 2.68 32 2 C38.6 2 45.2 2 52 2 C51.67 2.99 51.34 3.98 51 5 C50.195625 5.12375 49.39125 5.2475 48.5625 5.375 C47.716875 5.58125 46.87125 5.7875 46 6 C45.67 6.66 45.34 7.32 45 8 C44.34 7.67 43.68 7.34 43 7 C41.61182327 6.88273341 40.21851286 6.82318594 38.82568359 6.79467773 C37.53457169 6.7647599 37.53457169 6.7647599 36.21737671 6.73423767 C35.28712677 6.71752518 34.35687683 6.70081268 33.3984375 6.68359375 C32.44683746 6.66281265 31.49523743 6.64203156 30.51480103 6.62062073 C27.46827568 6.55511867 24.42166257 6.4962372 21.375 6.4375 C19.31249084 6.39431541 17.24999063 6.35070114 15.1875 6.30664062 C10.12509046 6.1994366 5.06259245 6.09817098 0 6 C0 4.02 0 2.04 0 0 Z " fill="#0D7B7C" transform="translate(3,129)"/>
<path d="M0 0 C1.65 0 3.3 0 5 0 C4.59007812 0.51949219 4.18015625 1.03898437 3.7578125 1.57421875 C3.21898437 2.27160156 2.68015625 2.96898438 2.125 3.6875 C1.59132813 4.37199219 1.05765625 5.05648437 0.5078125 5.76171875 C-2.6623582 10.46769754 -3.23907436 14.16581932 -3.125 19.8125 C-3.10695313 20.97394531 -3.08890625 22.13539062 -3.0703125 23.33203125 C-3.04710937 24.21246094 -3.02390625 25.09289062 -3 26 C-1.68 23.69 -0.36 21.38 1 19 C1.99 19 2.98 19 4 19 C2.18061137 22.79039298 0.22231437 26.43082843 -2 30 C-2.99 30.33 -3.98 30.66 -5 31 C-6.23839599 24.34362157 -6.09139136 17.7528064 -6 11 C-5.34 11 -4.68 11 -4 11 C-4.04125 10.2575 -4.0825 9.515 -4.125 8.75 C-3.99601866 5.91241048 -3.42948778 4.41226062 -2 2 C-1.34 2 -0.68 2 0 2 C0 1.34 0 0.68 0 0 Z " fill="#53A3A5" transform="translate(32,92)"/>
<path d="M0 0 C3.63 0 7.26 0 11 0 C10.67 0.99 10.34 1.98 10 3 C14.44209357 3.10834375 18.61414671 2.70173653 23 2 C23 2.66 23 3.32 23 4 C21.78183594 4.33773437 20.56367187 4.67546875 19.30859375 5.0234375 C17.68489196 5.47394436 16.06119426 5.92446597 14.4375 6.375 C13.63763672 6.59671875 12.83777344 6.8184375 12.01367188 7.046875 C7.33666304 8.34498357 2.66516529 9.6599391 -2 11 C-2 10.34 -2 9.68 -2 9 C-1.01 9 -0.02 9 1 9 C1 8.34 1 7.68 1 7 C2.98 7 4.96 7 7 7 C7 6.01 7 5.02 7 4 C4.36 4.33 1.72 4.66 -1 5 C-0.34 4.34 0.32 3.68 1 3 C0.67 2.01 0.34 1.02 0 0 Z " fill="#208383" transform="translate(42,79)"/>
<path d="M0 0 C0.66 0.33 1.32 0.66 2 1 C1.1875 4.4375 1.1875 4.4375 0 8 C-0.99 8.33 -1.98 8.66 -3 9 C-3 9.66 -3 10.32 -3 11 C-3.66 11 -4.32 11 -5 11 C-5.33 11.99 -5.66 12.98 -6 14 C-6.33 13.01 -6.66 12.02 -7 11 C-7.99 11.33 -8.98 11.66 -10 12 C-10 11.34 -10 10.68 -10 10 C-11.32 9.67 -12.64 9.34 -14 9 C-10.104649 6.31035288 -6.24164888 4.12082444 -2 2 C-1.34 1.34 -0.68 0.68 0 0 Z " fill="#2C9393" transform="translate(48,101)"/>
<path d="M0 0 C0.99 0 1.98 0 3 0 C6.06034947 9.18104841 4.77645751 21.24183258 1 30 C0.62770641 31.65839874 0.2706431 33.32201275 0 35 C-0.66 35 -1.32 35 -2 35 C-1.86722656 34.34773438 -1.73445313 33.69546875 -1.59765625 33.0234375 C-1.42105469 32.14945313 -1.24445313 31.27546875 -1.0625 30.375 C-0.88847656 29.51648438 -0.71445313 28.65796875 -0.53515625 27.7734375 C-0.27025391 26.40058594 -0.27025391 26.40058594 0 25 C0.185625 24.071875 0.37125 23.14375 0.5625 22.1875 C1.09542364 18.30477063 1.10848498 14.53726086 1.0625 10.625 C1.05798828 9.88894531 1.05347656 9.15289062 1.04882812 8.39453125 C1.03715142 6.59631842 1.01922011 4.79814803 1 3 C0.34 3 -0.32 3 -1 3 C-1 3.66 -1 4.32 -1 5 C-1.66 5 -2.32 5 -3 5 C-3 4.01 -3 3.02 -3 2 C-2.01 2 -1.02 2 0 2 C0 1.34 0 0.68 0 0 Z " fill="#44A09F" transform="translate(80,73)"/>
<path d="M0 0 C-0.24155465 3.26098774 -1.22715224 4.23269254 -3.5625 6.625 C-7.11580554 9.43479148 -10.5949258 10.16455489 -15 11 C-12.18932571 3.87962512 -12.18932571 3.87962512 -8.1875 1.875 C-7.50042969 1.52179688 -6.81335937 1.16859375 -6.10546875 0.8046875 C-4 0 -4 0 0 0 Z " fill="#2E8B8A" transform="translate(67,91)"/>
<path d="M0 0 C0.99 0.33 1.98 0.66 3 1 C2.67 3.64 2.34 6.28 2 9 C-13.18 8.67 -28.36 8.34 -44 8 C-44 7.67 -44 7.34 -44 7 C-21.725 6.505 -21.725 6.505 1 6 C0.505 3.03 0.505 3.03 0 0 Z " fill="#2D8787" transform="translate(112,128)"/>
<path d="M0 0 C14.52 0 29.04 0 44 0 C44 0.66 44 1.32 44 2 C30.47 2 16.94 2 3 2 C2.67 3.32 2.34 4.64 2 6 C1.34 6 0.68 6 0 6 C0 4.02 0 2.04 0 0 Z " fill="#0B8180" transform="translate(3,18)"/>
<path d="M0 0 C0.99 0 1.98 0 3 0 C3 2.97 3 5.94 3 9 C1.88625 9.45375 0.7725 9.9075 -0.375 10.375 C-3.96199008 11.72465986 -3.96199008 11.72465986 -6 14 C-6.33 12.68 -6.66 11.36 -7 10 C-6.01 9.67 -5.02 9.34 -4 9 C-3.484375 8.484375 -2.96875 7.96875 -2.4375 7.4375 C-1.963125 6.963125 -1.48875 6.48875 -1 6 C-0.34 6 0.32 6 1 6 C0.67 4.02 0.34 2.04 0 0 Z " fill="#398F8A" transform="translate(111,17)"/>
<path d="M0 0 C0.66 0.33 1.32 0.66 2 1 C1.67 2.65 1.34 4.3 1 6 C-0.65 6 -2.3 6 -4 6 C-4 7.32 -4 8.64 -4 10 C-5.32 9.67 -6.64 9.34 -8 9 C-7.00217242 5.64367085 -6.38142405 4.26048472 -3.4375 2.25 C-2.2309375 1.63125 -2.2309375 1.63125 -1 1 C-0.67 0.67 -0.34 0.34 0 0 Z " fill="#068483" transform="translate(48,101)"/>
<path d="M0 0 C1.65 0 3.3 0 5 0 C4.59007812 0.51949219 4.18015625 1.03898437 3.7578125 1.57421875 C0.92363424 5.2423777 -1.59828033 8.51449706 -3 13 C-3.33 13 -3.66 13 -4 13 C-4.28571429 5.57142857 -4.28571429 5.57142857 -2 2 C-1.34 2 -0.68 2 0 2 C0 1.34 0 0.68 0 0 Z " fill="#489B98" transform="translate(32,92)"/>
<path d="M0 0 C0.66 0 1.32 0 2 0 C2.33 1.32 2.66 2.64 3 4 C7.455 3.505 7.455 3.505 12 3 C12 3.99 12 4.98 12 6 C10.02 6 8.04 6 6 6 C6 6.66 6 7.32 6 8 C3 7 3 7 0 5 C-0.1875 2.375 -0.1875 2.375 0 0 Z " fill="#0D7F7E" transform="translate(37,80)"/>
<path d="M0 0 C0 0.99 0 1.98 0 3 C-9.22551253 7.77676538 -9.22551253 7.77676538 -15 6 C-12.60236815 3.60236815 -11.66726502 3.65719414 -8.375 3.375 C-7.55773437 3.30023438 -6.74046875 3.22546875 -5.8984375 3.1484375 C-5.27195312 3.09945312 -4.64546875 3.05046875 -4 3 C-4 2.34 -4 1.68 -4 1 C-2 0 -2 0 0 0 Z " fill="#1D7C78" transform="translate(77,75)"/>
<path d="M0 0 C1.32 0.33 2.64 0.66 4 1 C4.33 2.65 4.66 4.3 5 6 C4.34 6 3.68 6 3 6 C3 5.34 3 4.68 3 4 C1.35 4 -0.3 4 -2 4 C-2 6.31 -2 8.62 -2 11 C-3.32 10.34 -4.64 9.68 -6 9 C-4.68 6.69 -3.36 4.38 -2 2 C-1.34 2 -0.68 2 0 2 C0 1.34 0 0.68 0 0 Z " fill="#0F7F7E" transform="translate(74,116)"/>
<path d="M0 0 C0.66 0.33 1.32 0.66 2 1 C-1.39830494 4.69815538 -4.42098822 6.95405857 -9 9 C-9.78375 9.391875 -10.5675 9.78375 -11.375 10.1875 C-11.91125 10.455625 -12.4475 10.72375 -13 11 C-9.57933564 5.94336573 -5.08997609 3.16492103 0 0 Z " fill="#4F9D9C" transform="translate(49,98)"/>
<path d="M0 0 C0 0.66 0 1.32 0 2 C-1.74816858 2.50636607 -3.49862263 3.00484619 -5.25 3.5 C-6.22453125 3.7784375 -7.1990625 4.056875 -8.203125 4.34375 C-11 5 -11 5 -15 5 C-15 4.34 -15 3.68 -15 3 C-13.44033782 2.491217 -11.87710759 1.99336531 -10.3125 1.5 C-9.44238281 1.2215625 -8.57226562 0.943125 -7.67578125 0.65625 C-5.00608323 0.00149195 -2.73603316 -0.11831495 0 0 Z " fill="#408F8E" transform="translate(65,81)"/>
<path d="M0 0 C0.99 0 1.98 0 3 0 C3 2.97 3 5.94 3 9 C0.36 9.99 -2.28 10.98 -5 12 C-5 11.01 -5 10.02 -5 9 C-3.35 8.67 -1.7 8.34 0 8 C0 5.36 0 2.72 0 0 Z " fill="#3F918F" transform="translate(46,17)"/>
<path d="M0 0 C0.66 0.99 1.32 1.98 2 3 C1.125 6.6875 1.125 6.6875 0 10 C-0.66 9.67 -1.32 9.34 -2 9 C-2.33 9.33 -2.66 9.66 -3 10 C-3.99 10.33 -4.98 10.66 -6 11 C-6 10.34 -6 9.68 -6 9 C-5.34 9 -4.68 9 -4 9 C-3.71125 8.2575 -3.4225 7.515 -3.125 6.75 C-2.17697356 4.43260203 -1.15154089 2.22082885 0 0 Z " fill="#3A9492" transform="translate(77,108)"/>
<path d="M0 0 C0.33 0 0.66 0 1 0 C1.08160748 1.89510699 1.13946459 3.79124504 1.1875 5.6875 C1.22230469 6.74324219 1.25710938 7.79898438 1.29296875 8.88671875 C0.9614422 12.40974086 0.1527715 14.21494596 -2 17 C-2.99 17.33 -3.98 17.66 -5 18 C-5.66 17.34 -6.32 16.68 -7 16 C-6.01 16 -5.02 16 -4 16 C-3.34 14.35 -2.68 12.7 -2 11 C-1.34 11 -0.68 11 0 11 C0 7.37 0 3.74 0 0 Z " fill="#2E8E8F" transform="translate(12,111)"/>
<path d="M0 0 C-0.25 1.875 -0.25 1.875 -1 4 C-3.0625 5.25 -3.0625 5.25 -5 6 C-5.33 5.01 -5.66 4.02 -6 3 C-6.66 2.67 -7.32 2.34 -8 2 C-4.91190305 0.23537317 -3.76687864 0 0 0 Z " fill="#66A9A3" transform="translate(67,91)"/>
<path d="M0 0 C3.375 -0.1875 3.375 -0.1875 7 0 C9.29013653 3.4352048 9.17842973 4.985331 9 9 C7.66666667 7 6.33333333 5 5 3 C2.44816596 1.79549696 2.44816596 1.79549696 0 1 C0 0.67 0 0.34 0 0 Z " fill="#429E9D" transform="translate(68,25)"/>
<path d="M0 0 C3.63 0 7.26 0 11 0 C11 0.66 11 1.32 11 2 C3.57142857 3.28571429 3.57142857 3.28571429 0 2 C0 1.34 0 0.68 0 0 Z " fill="#3CA59F" transform="translate(42,79)"/>
<path d="M0 0 C0.66 0 1.32 0 2 0 C1.01 3.96 0.02 7.92 -1 12 C-1.33 12 -1.66 12 -2 12 C-2.05395478 10.37536158 -2.09277195 8.75021459 -2.125 7.125 C-2.14820313 6.22007813 -2.17140625 5.31515625 -2.1953125 4.3828125 C-2 2 -2 2 0 0 Z " fill="#499898" transform="translate(36,119)"/>
<path d="M0 0 C0.99 0 1.98 0 3 0 C3 0.66 3 1.32 3 2 C1.5390625 3.2890625 1.5390625 3.2890625 -0.375 4.625 C-1.00148438 5.07101563 -1.62796875 5.51703125 -2.2734375 5.9765625 C-4 7 -4 7 -6 7 C-6.33 6.01 -6.66 5.02 -7 4 C-5.02 3.67 -3.04 3.34 -1 3 C-0.67 2.01 -0.34 1.02 0 0 Z " fill="#59A39D" transform="translate(55,100)"/>
<path d="M0 0 C0.99 0.33 1.98 0.66 3 1 C3 1.99 3 2.98 3 4 C1.02 4.66 -0.96 5.32 -3 6 C-1.125 1.125 -1.125 1.125 0 0 Z " fill="#0C8080" transform="translate(55,96)"/>
<path d="M0 0 C0.99 0 1.98 0 3 0 C1.84826645 2.46800047 0.95216435 4.04783565 -1 6 C-1.66 6 -2.32 6 -3 6 C-1.125 1.125 -1.125 1.125 0 0 Z " fill="#409B9D" transform="translate(33,111)"/>
<path d="M0 0 C2.31 0 4.62 0 7 0 C3.71536341 2.18975773 0.79303725 2.99806563 -3 4 C-3 3.34 -3 2.68 -3 2 C-2.01 2 -1.02 2 0 2 C0 1.34 0 0.68 0 0 Z " fill="#3D9592" transform="translate(43,86)"/>
<path d="M0 0 C0.33 0.66 0.66 1.32 1 2 C-1.8125 2.625 -1.8125 2.625 -5 3 C-5.99 2.34 -6.98 1.68 -8 1 C-5.29120665 -0.35439668 -2.99066732 -0.06501451 0 0 Z " fill="#238783" transform="translate(70,79)"/>
</svg>
