<?xml version="1.0" encoding="UTF-8"?>
<svg version="1.1" xmlns="http://www.w3.org/2000/svg" width="512" height="512">
<path d="M0 0 C1.05008743 0.45121719 2.10017487 0.90243439 3.18208313 1.36732483 C6.63146968 2.85343639 10.07154391 4.35988889 13.51171875 5.8671875 C15.90685463 6.90528726 18.3025329 7.94213644 20.69873047 8.9777832 C24.41648198 10.58552998 28.13328442 12.19537517 31.84680176 13.81288147 C40.53504561 17.5968982 49.2451678 21.32548049 57.96875 25.02734375 C61.46326282 26.51518391 64.95727464 28.00419241 68.45101929 29.49383545 C70.69321026 30.44825707 72.93655393 31.39997542 75.18106079 32.34893799 C78.30828226 33.67273309 81.43005134 35.00864392 84.55078125 36.34765625 C85.47433914 36.73526627 86.39789703 37.12287628 87.34944153 37.52223206 C92.40977783 39.7095854 96.62074122 41.58523243 99.19921875 46.7421875 C99.30304308 49.57633212 99.34602244 52.3860887 99.34448242 55.22070312 C99.34952034 56.53839439 99.34952034 56.53839439 99.35466003 57.88270569 C99.36420138 60.80463051 99.36611593 63.72649803 99.3671875 66.6484375 C99.37040215 68.68754093 99.37376639 70.72664412 99.37727356 72.76574707 C99.38327574 77.05656466 99.38511277 81.3473621 99.38452148 85.63818359 C99.38442077 91.08896516 99.39797272 96.53961377 99.41529369 101.99036407 C99.4265254 106.21336435 99.42843716 110.43633387 99.42791176 114.65934753 C99.42907899 116.66522167 99.43342861 118.67109693 99.44124413 120.67695618 C99.49626574 136.28185559 99.29110927 152.17474318 95.01171875 167.3046875 C94.69025879 168.47209473 94.69025879 168.47209473 94.36230469 169.66308594 C89.2853035 187.39309434 81.11379918 203.60559529 69.19921875 217.7421875 C70.27171875 218.2165625 71.34421875 218.6909375 72.44921875 219.1796875 C73.0525 219.44652344 73.65578125 219.71335938 74.27734375 219.98828125 C79.78028782 222.14695646 85.51730823 223.20497813 91.14599609 220.96875 C95.9403801 218.76797699 100.57230383 216.27228086 105.19921875 213.7421875 C105.85921875 213.4121875 106.51921875 213.0821875 107.19921875 212.7421875 C106.67898728 209.51675237 105.79297202 206.65507935 104.63671875 203.6171875 C102.39701642 196.95351869 101.86481782 189.97268787 104.76171875 183.4296875 C110.09319301 174.73732387 118.31072212 171.63591373 127.51171875 168.0546875 C128.68412109 167.58224609 129.85652344 167.10980469 131.06445312 166.62304688 C153.19878236 157.81133457 153.19878236 157.81133457 163.171875 161.46484375 C173.78599786 166.85355228 176.96526813 177.74587743 180.88671875 188.1171875 C181.53632706 189.80284911 182.18732669 191.4879751 182.83959961 193.17260742 C184.24062711 196.79733791 185.63346965 200.42506972 187.02050781 204.05517578 C189.20224548 209.75987122 191.41254208 215.45321427 193.62890625 221.14453125 C198.5040083 233.67000816 203.35396813 246.20513701 208.19921875 258.7421875 C208.68169965 259.99047929 209.16418261 261.23877029 209.64666748 262.48706055 C212.9201116 270.95647742 216.19206259 279.4264702 219.46262741 287.89699936 C219.95227826 289.16513961 220.44195554 290.43326965 220.9316597 291.70138931 C222.54231548 295.87229549 224.1522112 300.04349437 225.76171875 304.21484375 C226.16712387 305.26476501 226.57252899 306.31468628 226.99021912 307.39642334 C227.7314763 309.31832577 228.47125588 311.24079907 229.20921326 313.16397095 C229.84356005 314.81596521 230.48176958 316.46648453 231.12489319 318.11508179 C233.79532341 325.041033 234.52633775 331.88398401 232.54296875 339.14453125 C228.58777506 348.0266688 220.86664739 351.65684404 212.27687073 355.03144836 C210.76956247 355.60915086 209.26022935 356.18159499 207.74902344 356.74902344 C205.45931609 357.61337581 203.18519284 358.51190976 200.91015625 359.4140625 C191.62023498 363.00905754 182.70716316 366.1881097 172.94921875 362.2421875 C167.5887795 359.14283888 163.55943871 354.40348741 160.76171875 348.9296875 C160.19921875 346.7421875 160.19921875 346.7421875 160.19921875 343.7421875 C159.26070068 344.15114258 159.26070068 344.15114258 158.30322266 344.56835938 C155.47850452 345.79672593 152.65140804 347.01951992 149.82421875 348.2421875 C148.839375 348.67144531 147.85453125 349.10070312 146.83984375 349.54296875 C145.42832031 350.15205078 145.42832031 350.15205078 143.98828125 350.7734375 C143.11896973 351.15048828 142.2496582 351.52753906 141.35400391 351.91601562 C139.19921875 352.7421875 139.19921875 352.7421875 137.19921875 352.7421875 C137.25722656 353.56460937 137.31523437 354.38703125 137.375 355.234375 C137.7651456 364.88769173 136.07308526 371.28724102 129.69921875 378.6171875 C128.87421875 379.3184375 128.04921875 380.0196875 127.19921875 380.7421875 C126.41546875 381.4640625 125.63171875 382.1859375 124.82421875 382.9296875 C121.62104237 385.14140452 118.97135667 385.85462564 115.19921875 386.7421875 C115.52921875 387.4021875 115.85921875 388.0621875 116.19921875 388.7421875 C117.06190442 399.26412419 116.04100901 407.88011138 109.69921875 416.4921875 C104.81058498 421.67635581 98.05369637 425.29833856 90.9765625 426.11328125 C88.35338909 426.11666599 85.80648615 426.01933797 83.19921875 425.7421875 C83.18503906 426.34804688 83.17085938 426.95390625 83.15625 427.578125 C82.61244053 437.13153459 79.15982901 444.74616626 72.09375 451.2734375 C64.280691 457.3305719 56.78296095 457.90967037 47.19921875 457.7421875 C47.12445313 458.43183594 47.0496875 459.12148438 46.97265625 459.83203125 C45.64016128 469.35545119 41.78765413 476.46825796 34.1640625 482.45703125 C26.65506113 487.36848542 19.09052733 488.92691331 10.19921875 487.7421875 C6.6836917 486.72714096 3.4747881 485.36254893 0.19921875 483.7421875 C-0.4453125 483.43410156 -1.08984375 483.12601562 -1.75390625 482.80859375 C-3.11494247 482.14397559 -4.46044796 481.44762607 -5.80078125 480.7421875 C-6.27386719 481.20109375 -6.74695313 481.66 -7.234375 482.1328125 C-15.27568584 489.59414576 -21.88444919 492.36556848 -32.91796875 492.21289062 C-42.56703265 491.78505477 -49.32523155 487.78781946 -55.80078125 480.7421875 C-57.37948084 478.45640838 -58.57394504 476.24697809 -59.80078125 473.7421875 C-60.57035156 473.98001953 -60.57035156 473.98001953 -61.35546875 474.22265625 C-71.54457294 476.38743398 -81.77941053 475.24704925 -90.56640625 469.609375 C-94.50457824 466.60602161 -97.0870621 462.81276622 -99.80078125 458.7421875 C-101.04988281 459.22171875 -101.04988281 459.22171875 -102.32421875 459.7109375 C-110.89040836 462.25191959 -120.24660306 462.00881748 -128.36328125 458.2421875 C-136.6182611 453.43704998 -141.17973164 447.63043418 -144.15625 438.57421875 C-145.13777626 434.26145184 -145.1437833 430.13451928 -144.80078125 425.7421875 C-145.74953125 425.8246875 -146.69828125 425.9071875 -147.67578125 425.9921875 C-154.1132657 425.97912972 -159.76658268 423.07224041 -165.05078125 419.6171875 C-171.94270234 412.41199726 -175.3167814 404.74378563 -176.11328125 394.8671875 C-175.79603494 385.79041805 -171.78733282 378.52105114 -167.12890625 370.91796875 C-165.46187442 366.93180147 -165.86349011 364.93084741 -166.80078125 360.7421875 C-166.93468262 360.05503662 -167.06858398 359.36788574 -167.20654297 358.65991211 C-167.63900486 356.44880825 -168.12107675 354.25320095 -168.61328125 352.0546875 C-168.84241211 350.93610352 -168.84241211 350.93610352 -169.07617188 349.79492188 C-170.07941194 345.34973567 -170.96840194 342.5276099 -174.80078125 339.7421875 C-177.22002581 338.54898543 -179.55605927 337.48601983 -182.05078125 336.4921875 C-182.70046875 336.2240625 -183.35015625 335.9559375 -184.01953125 335.6796875 C-185.60963879 335.02493734 -187.20473083 334.38231468 -188.80078125 333.7421875 C-189.14109375 334.46664063 -189.48140625 335.19109375 -189.83203125 335.9375 C-193.79821425 343.84876928 -197.72203311 348.36490114 -205.73828125 352.1171875 C-213.08994684 353.61752742 -218.96514234 352.82588635 -225.73828125 349.7421875 C-226.45338867 349.43112061 -227.16849609 349.12005371 -227.90527344 348.79956055 C-229.42223646 348.1369998 -230.9360368 347.46715618 -232.44677734 346.79052734 C-234.8632928 345.7143484 -237.29262623 344.6728349 -239.7265625 343.63671875 C-241.33508374 342.94374806 -242.94316896 342.24976425 -244.55078125 341.5546875 C-245.30093506 341.23435547 -246.05108887 340.91402344 -246.82397461 340.58398438 C-253.60970615 337.5924336 -257.93851029 334.22528518 -261.80078125 327.7421875 C-266.27626463 314.31573735 -260.10303093 302.96729332 -254.48828125 291.0546875 C-253.6196125 289.16012787 -252.75378216 287.26426454 -251.890625 285.3671875 C-250.09863287 281.43449593 -248.29466986 277.50764303 -246.48193359 273.58447266 C-242.71073717 265.39848986 -239.09006226 257.14688913 -235.4666748 248.89471436 C-233.51364075 244.4513625 -231.54906666 240.01311718 -229.5859375 235.57421875 C-225.87635577 227.1807598 -222.172497 218.784784 -218.47093201 210.38778687 C-216.42427904 205.74637742 -214.37450597 201.10639778 -212.31713867 196.46972656 C-211.92956894 195.59617523 -211.54199921 194.7226239 -211.14268494 193.82260132 C-210.38747597 192.12042385 -209.63215848 190.41829454 -208.87672424 188.71621704 C-206.76981524 183.96006478 -204.70194478 179.19012522 -202.66796875 174.40234375 C-202.22332275 173.37407471 -201.77867676 172.34580566 -201.32055664 171.28637695 C-200.56072065 169.52776767 -199.81552002 167.76269028 -199.09155273 165.98901367 C-196.24365709 159.48064156 -191.84482532 154.69700005 -185.39160156 151.57763672 C-175.50683842 148.39014525 -166.75328534 151.75152626 -157.73828125 155.8671875 C-156.64451172 156.3415625 -155.55074219 156.8159375 -154.42382812 157.3046875 C-132.77733215 166.83378151 -132.77733215 166.83378151 -127.80078125 175.7421875 C-124.41526649 185.89873179 -127.52077591 195.40260441 -131.80078125 204.7421875 C-128.35076442 206.3852682 -124.88947702 208.00316752 -121.42578125 209.6171875 C-120.46027344 210.07738281 -119.49476563 210.53757813 -118.5 211.01171875 C-112.32964888 213.86912967 -106.53690733 215.76773281 -99.80078125 216.7421875 C-100.50203125 215.7728125 -101.20328125 214.8034375 -101.92578125 213.8046875 C-122.96505128 184.27601804 -128.93582644 154.24734431 -129.00390625 118.40234375 C-129.00814732 116.88916974 -129.00814732 116.88916974 -129.01247406 115.34542656 C-129.02736787 110.02284364 -129.03666328 104.70028721 -129.04101562 99.37768555 C-129.04653336 93.88774381 -129.07065816 88.39804595 -129.09898758 82.90818119 C-129.11759251 78.67285943 -129.12281808 74.43759726 -129.1243515 70.20223808 C-129.12737566 68.17723676 -129.1353962 66.15223642 -129.14853668 64.12727547 C-129.16557676 61.30348903 -129.16372369 58.48031101 -129.15722656 55.65649414 C-129.16644135 54.82370438 -129.17565613 53.99091461 -129.18515015 53.13288879 C-129.15177892 48.50665966 -128.7811758 45.51223131 -125.80078125 41.7421875 C-123.83862305 40.43798828 -123.83862305 40.43798828 -121.5 39.4375 C-120.56986084 39.03072021 -119.63972168 38.62394043 -118.68139648 38.20483398 C-117.62766846 37.76341064 -116.57394043 37.3219873 -115.48828125 36.8671875 C-114.35398682 36.37742432 -113.21969238 35.88766113 -112.05102539 35.38305664 C-109.32017782 34.2052756 -106.58449654 33.03955278 -103.84570312 31.88037109 C-99.00478878 29.83128282 -94.17140919 27.76479364 -89.33842468 25.69708252 C-77.85844889 20.78594709 -66.37737759 15.87690337 -54.87419128 11.02032471 C-49.10038741 8.58109374 -43.34458215 6.10851943 -37.60986328 3.57861328 C-36.43758682 3.06726334 -35.26531036 2.55591339 -34.05751038 2.02906799 C-31.82581643 1.05491847 -29.59892316 0.06966705 -27.37791443 -0.92860413 C-16.6863155 -5.56530207 -10.57450176 -4.68442072 0 0 Z M-28.57421875 18.17578125 C-29.63510712 18.64080551 -30.69599548 19.10582977 -31.78903198 19.58494568 C-35.25569377 21.10671238 -38.71560961 22.64322848 -42.17578125 24.1796875 C-45.76165464 25.75799025 -49.34920645 27.3324324 -52.93688965 28.90661621 C-55.35743696 29.96893535 -57.77743812 31.03249978 -60.19689941 32.09729004 C-72.3001319 37.41914233 -84.46802437 42.58387386 -96.6539917 47.71286011 C-98.29128421 48.40215784 -99.92821823 49.09230797 -101.56472778 49.78346252 C-103.02300405 50.39931115 -104.48215947 51.01308384 -105.94235229 51.62437439 C-109.10295798 52.81043567 -109.10295798 52.81043567 -111.80078125 54.7421875 C-111.91189247 57.27852674 -111.95817328 59.78788108 -111.96191406 62.32519531 C-111.96687897 63.12066269 -111.97184387 63.91613007 -111.97695923 64.73570251 C-111.9916507 67.38891454 -111.99840283 70.04206632 -112.00390625 72.6953125 C-112.00966255 74.54929607 -112.01542022 76.40327963 -112.0211792 78.25726318 C-112.03171605 82.16483843 -112.03753765 86.072393 -112.04101562 89.97998047 C-112.04643353 94.92723425 -112.07030276 99.87420336 -112.09898758 104.82136917 C-112.11787464 108.66533112 -112.12283369 112.50922897 -112.1243515 116.35323334 C-112.12733252 118.17242702 -112.13520164 119.99162088 -112.14853668 121.81076813 C-112.34576275 150.84716688 -107.46198126 181.07823553 -87.61328125 203.640625 C-85.80078125 205.7421875 -85.80078125 205.7421875 -84.42578125 207.96875 C-82.99170918 210.17961112 -82.10886174 211.44947439 -79.80078125 212.7421875 C-75.29777609 212.7152234 -71.14799976 211.87091634 -66.80078125 210.7421875 C-67.56390625 209.8759375 -68.32703125 209.0096875 -69.11328125 208.1171875 C-70.34799757 206.66354985 -71.57609672 205.20428688 -72.80078125 203.7421875 C-73.64769531 202.73414063 -74.49460938 201.72609375 -75.3671875 200.6875 C-94.4577464 177.49144456 -99.93309762 152.31539643 -100.00390625 122.75390625 C-100.00673363 121.95290812 -100.009561 121.15190998 -100.01247406 120.32663918 C-100.02736345 116.09983628 -100.03666145 111.87306671 -100.04101562 107.64624023 C-100.04653095 103.29066801 -100.07065184 98.93540354 -100.09898758 94.5799284 C-100.11760988 91.21616203 -100.12281901 87.85247056 -100.1243515 84.488657 C-100.12737203 82.88231509 -100.13538031 81.27597432 -100.14853668 79.66968346 C-100.16561297 77.42757785 -100.1637152 75.18623623 -100.15722656 72.9440918 C-100.16087219 71.67075485 -100.16451782 70.39741791 -100.16827393 69.085495 C-99.77242419 65.48420582 -98.96065342 63.61653224 -96.80078125 60.7421875 C-94.80688477 59.42211914 -94.80688477 59.42211914 -92.4296875 58.40234375 C-91.48786621 57.98944092 -90.54604492 57.57653809 -89.57568359 57.15112305 C-88.51559082 56.70679932 -87.45549805 56.26247559 -86.36328125 55.8046875 C-85.23615723 55.32104736 -84.1090332 54.83740723 -82.94775391 54.33911133 C-80.24390571 53.17956668 -77.5355309 52.03118812 -74.82568359 50.88574219 C-69.93856828 48.81158925 -65.07766629 46.67924823 -60.2162323 44.54573059 C-55.55342848 42.50383681 -50.88233364 40.48137872 -46.20968628 38.46212769 C-43.85947761 37.44298479 -41.51205415 36.4173941 -39.16751099 35.38528442 C-35.82170276 33.91536595 -32.46536372 32.47252908 -29.10546875 31.03515625 C-28.10002518 30.58681427 -27.0945816 30.13847229 -26.05867004 29.67654419 C-17.37324797 26.01520586 -11.95483863 26.36532857 -3.27880859 29.80834961 C-1.22595707 30.69953978 0.82116159 31.60401687 2.86328125 32.51953125 C3.97238861 33.0049086 5.08149597 33.49028595 6.22421265 33.9903717 C9.76272717 35.54200063 13.29350507 37.11040083 16.82421875 38.6796875 C19.14142627 39.69970617 21.459131 40.71859612 23.77734375 41.73632812 C27.21906607 43.24766673 30.65917017 44.76215074 34.09429932 46.28842163 C39.68320088 48.77088745 45.28332451 51.20907878 50.93261719 53.55126953 C52.52401016 54.2183065 52.52401016 54.2183065 54.14755249 54.89881897 C56.1431336 55.73257044 58.14391984 56.55401102 60.15054321 57.36082458 C61.03720673 57.73361038 61.92387024 58.10639618 62.83740234 58.49047852 C63.61103119 58.806465 64.38466003 59.12245148 65.18173218 59.44801331 C67.91980793 61.20442994 68.8749737 62.77274615 70.19921875 65.7421875 C70.57344055 69.05184937 70.57344055 69.05184937 70.5715332 72.86474609 C70.57518387 73.56314606 70.57883453 74.26154602 70.58259583 74.98110962 C70.59068266 77.28453108 70.57709349 79.58724404 70.5625 81.890625 C70.56198058 83.50664265 70.56250144 85.12266095 70.56401062 86.73867798 C70.56392094 90.12975479 70.5535114 93.5205937 70.53540039 96.91162109 C70.51289515 101.21587483 70.5121366 105.51977574 70.51891804 109.82407188 C70.52229651 113.16682963 70.51555301 116.50951001 70.5057888 119.85225296 C70.50198912 121.43635271 70.50076636 123.02046117 70.50237465 124.60456467 C70.50751373 154.91882494 62.70907546 181.14462726 42.421875 204.16015625 C40.21002208 206.51675908 40.21002208 206.51675908 39.19921875 208.7421875 C43.15921875 209.7321875 47.11921875 210.7221875 51.19921875 211.7421875 C75.07030288 184.59372092 82.60502955 155.08153101 82.39453125 119.5859375 C82.39079011 117.70308586 82.38794836 115.82023224 82.38595581 113.93737793 C82.37840586 109.03845621 82.35883417 104.13965757 82.33654785 99.24078369 C82.31590071 94.21913314 82.3069142 89.19746223 82.296875 84.17578125 C82.27557801 74.36452995 82.2415497 64.55336906 82.19921875 54.7421875 C75.0782915 51.06822881 67.8467628 47.79161028 60.46484375 44.6796875 C59.36025818 44.21075577 58.25567261 43.74182404 57.11761475 43.25868225 C53.56277483 41.75011455 50.00611586 40.24589762 46.44921875 38.7421875 C41.57872003 36.68005104 36.70900652 34.61607013 31.83984375 32.55078125 C30.65169067 32.04703476 29.4635376 31.54328827 28.23937988 31.02427673 C21.53312983 28.17574281 14.84502627 25.29163299 8.18359375 22.33984375 C7.11821381 21.86942154 7.11821381 21.86942154 6.03131104 21.38949585 C2.89892106 20.0054133 -0.22757589 18.61121353 -3.34667969 17.19726562 C-4.4040332 16.72869141 -5.46138672 16.26011719 -6.55078125 15.77734375 C-7.4325 15.379104 -8.31421875 14.98086426 -9.22265625 14.57055664 C-16.53422384 12.22130012 -21.92371825 15.19293009 -28.57421875 18.17578125 Z M-21.89794922 45.75830078 C-22.91355927 46.19941193 -23.92916931 46.64052307 -24.97555542 47.09500122 C-26.07030182 47.57927582 -27.16504822 48.06355042 -28.29296875 48.5625 C-29.99925949 49.30691849 -29.99925949 49.30691849 -31.74002075 50.06637573 C-34.77174244 51.39052267 -37.80058551 52.72086414 -40.82818604 54.05438232 C-43.8585672 55.38752579 -46.89231838 56.71294953 -49.92578125 58.0390625 C-53.36375712 59.54222594 -56.80130661 61.04627747 -60.23654175 62.55569458 C-68.07171228 65.99782846 -75.93015962 69.38207039 -83.80078125 72.7421875 C-83.84745874 81.10571451 -83.88282805 89.4691856 -83.90440559 97.83281136 C-83.91477025 101.71785258 -83.92879274 105.60280362 -83.95166016 109.48779297 C-83.97365338 113.248502 -83.98540462 117.00912519 -83.99053574 120.76989365 C-83.99418464 122.19295474 -84.00130725 123.61601203 -84.01224136 125.0390358 C-84.19453098 149.78442555 -78.57682154 171.88539803 -61.80078125 190.7421875 C-61.1975 191.42796875 -60.59421875 192.11375 -59.97265625 192.8203125 C-49.37591118 204.12944379 -32.60050822 214.7058673 -17.05078125 217.1796875 C-13.06313456 216.64288891 -10.41024628 215.0539114 -6.8984375 213.15234375 C-3.81903037 211.75049511 -0.90161327 210.89605726 2.36157227 210.06079102 C11.57338784 207.69354855 18.04969305 204.20600411 25.19921875 197.7421875 C26.61654297 196.48728516 26.61654297 196.48728516 28.0625 195.20703125 C44.32230891 179.93675428 52.69749396 159.85760423 54.19921875 137.7421875 C54.32834923 132.67687276 54.31635147 127.61337943 54.296875 122.546875 C54.29500571 121.10385182 54.29358423 119.660828 54.29258728 118.21780396 C54.28880231 114.45318798 54.27900724 110.68861171 54.2678833 106.92401123 C54.25758188 103.06913795 54.25307111 99.21425813 54.24804688 95.359375 C54.23738062 87.82029457 54.22035361 80.28124663 54.19921875 72.7421875 C47.53083587 69.84659516 40.86229477 66.9513675 34.19356346 64.05657768 C31.09543903 62.7117184 27.9973648 61.36674373 24.89941406 60.02148438 C23.70155273 59.50134766 22.50369141 58.98121094 21.26953125 58.4453125 C20.08715881 57.93188293 18.90478638 57.41845337 17.68658447 56.88946533 C14.22783033 55.38873827 10.76777364 53.89104505 7.30761719 52.39355469 C3.69976439 50.83123359 0.09731093 49.2585867 -3.49511719 47.66113281 C-4.15055511 47.37223175 -4.80599304 47.08333069 -5.48129272 46.78567505 C-7.09305657 46.07442807 -8.70174462 45.35622102 -10.31005859 44.63720703 C-14.7843296 43.02941665 -17.73885489 43.93434292 -21.89794922 45.75830078 Z M-181.52368164 169.40649414 C-182.90688026 171.93623246 -184.1107021 174.45681483 -185.234375 177.11328125 C-185.70762207 178.22082764 -186.18086914 179.32837402 -186.66845703 180.46948242 C-186.92210022 181.06924896 -187.17574341 181.6690155 -187.43707275 182.28695679 C-188.8640353 185.65793431 -190.31152819 189.02008977 -191.7578125 192.3828125 C-192.07433777 193.11952682 -192.39086304 193.85624115 -192.71697998 194.61528015 C-196.86925263 204.25716571 -201.15259866 213.84095494 -205.42578125 223.4296875 C-207.14616852 227.29281954 -208.86609964 231.15615458 -210.5859375 235.01953125 C-211.01634338 235.98622238 -211.44674927 236.95291351 -211.89019775 237.94889832 C-217.3672557 250.25473962 -222.81630963 262.57302304 -228.24584961 274.89990234 C-229.0114884 276.63772509 -229.77719337 278.37551869 -230.54296875 280.11328125 C-230.90985306 280.94589478 -231.27673737 281.7785083 -231.65473938 282.63635254 C-233.88755976 287.69573778 -236.14947184 292.74094391 -238.43359375 297.77734375 C-239.22237915 299.52869629 -239.22237915 299.52869629 -240.02709961 301.31542969 C-240.9614053 303.38666911 -241.90412848 305.45414525 -242.85766602 307.51660156 C-245.98183953 313.91951033 -245.98183953 313.91951033 -245.80078125 320.7421875 C-240.4797543 325.66334143 -232.66350356 328.25906106 -226.11328125 331.1171875 C-224.58477539 331.81134766 -224.58477539 331.81134766 -223.02539062 332.51953125 C-222.03990234 332.95136719 -221.05441406 333.38320313 -220.0390625 333.828125 C-219.15259033 334.2204834 -218.26611816 334.6128418 -217.3527832 335.01708984 C-214.25300452 335.89782673 -212.79321279 335.97076415 -209.80078125 334.7421875 C-206.35095714 330.50417862 -204.27744235 325.68217827 -202.140625 320.69921875 C-201.62781479 319.52338982 -201.62781479 319.52338982 -201.10464478 318.32380676 C-200.36532672 316.6268276 -199.62864041 314.92869993 -198.89431763 313.22955322 C-197.71389732 310.49826736 -196.5267191 307.77000981 -195.33764648 305.04248047 C-194.08739249 302.17451564 -192.83752121 299.30639172 -191.5896759 296.43737793 C-187.60722161 287.28241615 -183.57763122 278.14862557 -179.5369873 269.01922607 C-178.36022903 266.36029089 -177.18437141 263.70095919 -176.00878906 261.04150391 C-172.3078985 252.66956976 -168.60462286 244.29869142 -164.90083313 235.92803955 C-163.17725433 232.03227841 -161.45428794 228.13624659 -159.73141479 224.24017334 C-158.5273768 221.51807502 -157.32242498 218.79638255 -156.11743164 216.07470703 C-154.32844289 212.03281545 -152.54850867 207.9870167 -150.77142334 203.93988037 C-149.83371809 201.81676192 -148.8825094 199.70017962 -147.92822266 197.58447266 C-147.37116436 196.33116796 -146.81434456 195.07775721 -146.2578125 193.82421875 C-145.77932861 192.76050049 -145.30084473 191.69678223 -144.80786133 190.60083008 C-143.76067154 187.62833427 -143.19142627 185.84067301 -143.80078125 182.7421875 C-148.63186174 177.91826906 -155.07744709 175.68556422 -161.23828125 172.9921875 C-162.91760742 172.23228516 -162.91760742 172.23228516 -164.63085938 171.45703125 C-165.71689453 170.97878906 -166.80292969 170.50054687 -167.921875 170.0078125 C-168.90599365 169.57243164 -169.8901123 169.13705078 -170.90405273 168.68847656 C-174.84924509 167.39968048 -178.31351396 166.30550036 -181.52368164 169.40649414 Z M146.09765625 179.1640625 C145.08114487 179.5550412 145.08114487 179.5550412 144.0440979 179.95391846 C142.61486382 180.50685021 141.18775942 181.06531431 139.76269531 181.62890625 C137.58061759 182.48966337 135.39083733 183.32794231 133.19921875 184.1640625 C131.81068153 184.70440405 130.42264249 185.24602792 129.03515625 185.7890625 C128.37993988 186.03920105 127.72472351 186.2893396 127.0496521 186.54705811 C123.61687991 187.921396 122.3116421 188.57355248 120.19921875 191.7421875 C120.49253514 197.73476482 122.58478781 202.89064949 124.78515625 208.421875 C125.15356125 209.36573563 125.52196625 210.30959625 125.90153503 211.28205872 C127.11889102 214.39650867 128.34660323 217.50676889 129.57421875 220.6171875 C130.43559838 222.81585515 131.29618084 225.01483526 132.15600586 227.21411133 C133.94422743 231.78635403 135.73588334 236.35722922 137.52978516 240.92724609 C141.24787431 250.4081129 144.91812681 259.90742526 148.59136963 269.4057312 C150.93036827 275.44925236 153.2776946 281.4895427 155.62408447 287.53019714 C158.09303269 293.88789561 160.5552483 300.24816137 163.01390076 306.60984802 C164.67333148 310.89961812 166.33807173 315.18731401 168.00411987 319.47451782 C168.79436202 321.51123624 169.5824246 323.5488018 170.36819458 325.58724976 C171.45191957 328.39769027 172.54336829 331.20501155 173.63671875 334.01171875 C173.95458847 334.84156281 174.27245819 335.67140686 174.59996033 336.52639771 C176.08957388 340.32753237 177.46762728 343.63207849 180.19921875 346.7421875 C188.15741776 346.34477432 194.85641511 343.30554791 202.13671875 340.2421875 C203.39223189 339.72442004 204.64808903 339.20748592 205.90429688 338.69140625 C211.41500463 336.81356443 211.41500463 336.81356443 216.19921875 333.7421875 C216.63397457 328.17500855 215.45321552 323.89053753 213.3671875 318.8125 C213.06413696 318.04670624 212.76108643 317.28091248 212.44885254 316.49191284 C211.78768695 314.82535437 211.12103774 313.16096327 210.44955444 311.49853516 C209.36115712 308.80390253 208.28686635 306.10401344 207.21606445 303.40234375 C206.07120521 300.51470187 204.92530514 297.62750979 203.77507019 294.74200439 C199.8056677 284.78383701 195.931281 274.7896449 192.06588745 264.79074097 C190.88312297 261.73289118 189.69794456 258.67598809 188.51196289 255.61938477 C184.75052885 245.92385153 180.99744445 236.22521878 177.26441956 226.51870728 C175.53644433 222.02703907 173.80483501 217.53677596 172.07290649 213.04663086 C171.24993394 210.90996345 170.42874409 208.77260842 169.60946655 206.63452148 C168.46939824 203.65954388 167.3232087 200.68698929 166.17578125 197.71484375 C165.84634018 196.85029068 165.51689911 195.98573761 165.17747498 195.09498596 C163.48508119 190.72924012 161.67410686 186.4280065 159.70068359 182.18139648 C159.12802261 180.94159279 159.12802261 180.94159279 158.54379272 179.67674255 C157.35814802 177.60616364 157.35814802 177.60616364 155.24713135 176.90596008 C151.93485769 176.64107592 149.12303489 177.96427965 146.09765625 179.1640625 Z M-29.87890625 249.8125 C-32.37402054 252.31775704 -35.01575315 254.61394913 -37.69921875 256.9140625 C-39.14328956 258.17024305 -40.56427218 259.45330901 -41.96484375 260.7578125 C-54.42043647 272.33859771 -68.43973961 281.71321577 -82.80078125 290.7421875 C-74.48389947 299.27603141 -66.13650139 304.31783658 -53.96484375 304.87109375 C-39.18457049 304.20294441 -24.8762608 297.78721173 -11.32568359 292.39672852 C0.53076195 287.70663834 12.00343457 283.59129402 24.82421875 283.4296875 C25.56800781 283.40068359 26.31179688 283.37167969 27.078125 283.34179688 C38.56899306 283.21412056 48.1695863 289.08563461 57.88671875 294.6171875 C59.0745772 295.28567642 60.26273428 295.95363497 61.45117188 296.62109375 C70.056121 301.4675943 78.58962875 306.4363422 87.09790039 311.45043945 C92.52108847 314.63601589 97.97673868 317.74807629 103.48828125 320.77734375 C104.40743317 321.28326553 104.40743317 321.28326553 105.34515381 321.79940796 C108.32272007 323.4364345 111.30448233 325.06455985 114.29296875 326.68164062 C123.23301572 331.5750836 123.23301572 331.5750836 126.59765625 334.73828125 C129.02484282 337.02489178 129.02484282 337.02489178 132.0234375 336.765625 C136.09447682 335.45367875 140.05826199 333.99845184 144.01171875 332.3671875 C144.78708984 332.06296875 145.56246094 331.75875 146.36132812 331.4453125 C147.09802734 331.14367187 147.83472656 330.84203125 148.59375 330.53125 C149.26253174 330.26006348 149.93131348 329.98887695 150.62036133 329.70947266 C152.55104198 328.75962027 152.55104198 328.75962027 153.19921875 325.7421875 C152.23569377 322.7941965 151.19045923 319.97848774 150.02734375 317.109375 C149.67762512 316.22458466 149.32790649 315.33979431 148.96759033 314.42819214 C147.80337127 311.48770796 146.62629276 308.55254684 145.44921875 305.6171875 C144.22023806 302.52462111 142.99442493 299.43081127 141.76879883 296.33691406 C140.91164562 294.17372441 140.05338802 292.01097208 139.1940918 289.84863281 C136.02736793 281.87066575 132.91940208 273.87135762 129.83984375 265.859375 C129.40698059 264.73469818 128.97411743 263.61002136 128.52813721 262.45126343 C126.83061245 258.03964362 125.13358497 253.62785966 123.44494629 249.21282959 C122.27400653 246.15306844 121.0966364 243.09585335 119.91796875 240.0390625 C119.39568695 238.66571243 119.39568695 238.66571243 118.862854 237.26461792 C118.54008484 236.43060455 118.21731567 235.59659119 117.88476562 234.73730469 C117.60596558 234.0100116 117.32716553 233.28271851 117.03991699 232.53338623 C116.23211841 230.54863787 116.23211841 230.54863787 114.19921875 228.7421875 C113.64459961 229.0095874 113.08998047 229.2769873 112.51855469 229.55249023 C109.99727743 230.76541335 107.47329487 231.9726003 104.94921875 233.1796875 C104.07652344 233.60056641 103.20382812 234.02144531 102.3046875 234.45507812 C101.03818359 235.05932617 101.03818359 235.05932617 99.74609375 235.67578125 C98.58352051 236.2335022 98.58352051 236.2335022 97.39746094 236.80249023 C81.34632084 243.66397827 63.14572436 234.49463301 48.08105469 228.91625977 C17.61758974 217.69601045 -7.59896661 226.90872206 -29.87890625 249.8125 Z M-139.80078125 220.7421875 C-144.35134547 229.64053085 -148.57945389 238.60154313 -152.48828125 247.8046875 C-153.60048869 250.40393091 -154.71736812 253.00114488 -155.8359375 255.59765625 C-156.1367926 256.29622742 -156.43764771 256.99479858 -156.74761963 257.71453857 C-159.4496148 263.96847658 -162.21166074 270.19511094 -164.984375 276.41796875 C-165.65695595 277.92753899 -165.65695595 277.92753899 -166.34312439 279.46760559 C-168.58662343 284.49967623 -170.83422345 289.52989197 -173.0847168 294.55883789 C-173.91980058 296.42983175 -174.75484467 298.30084334 -175.58984375 300.171875 C-175.97059555 301.01974075 -176.35134735 301.86760651 -176.74363708 302.74116516 C-178.94768139 307.68494114 -180.95114789 312.65478298 -182.80078125 317.7421875 C-182.25139893 317.96358398 -181.7020166 318.18498047 -181.13598633 318.41308594 C-178.62480866 319.43079463 -176.11909612 320.461349 -173.61328125 321.4921875 C-172.74896484 321.84023438 -171.88464844 322.18828125 -170.99414062 322.546875 C-164.2974321 325.31792681 -159.31048507 327.79790228 -156.11328125 334.6171875 C-155.71753906 335.43960938 -155.32179688 336.26203125 -154.9140625 337.109375 C-153.71513042 339.9447442 -152.73669608 342.81050909 -151.80078125 345.7421875 C-151.08535156 345.32066406 -150.36992187 344.89914062 -149.6328125 344.46484375 C-140.39670232 339.38677541 -131.75372668 337.12566924 -121.36328125 339.9296875 C-113.84246001 342.64688743 -108.28928337 347.14528487 -103.80078125 353.7421875 C-102.18660568 357.33502989 -100.91796018 360.96737172 -99.80078125 364.7421875 C-98.52203125 364.6803125 -97.24328125 364.6184375 -95.92578125 364.5546875 C-88.11755473 364.56698392 -80.88330169 366.76557987 -74.80078125 371.7421875 C-70.60722746 375.96735099 -67.58282553 380.49910405 -64.80078125 385.7421875 C-63.83398438 385.69578125 -62.8671875 385.649375 -61.87109375 385.6015625 C-50.55462363 385.28783858 -42.09090904 386.71991335 -33.5625 394.66015625 C-30.50505092 398.27350517 -28.61776787 402.40063775 -26.80078125 406.7421875 C-25.67800781 406.69578125 -24.55523437 406.649375 -23.3984375 406.6015625 C-12.37733504 406.27650708 -5.24615543 406.89506054 3.38671875 414.2421875 C10.90706097 420.5423806 19.82501161 424.69671117 28.45214844 429.27148438 C32.48541648 431.43078109 36.47001416 433.67270782 40.44921875 435.9296875 C47.10142017 439.69861947 50.54242346 441.42747867 58.19921875 439.7421875 C62.90994128 437.0796052 64.61211706 433.85618184 66.19921875 428.7421875 C66.10084701 423.92197247 64.41249344 420.28452258 61.19921875 416.7421875 C58.25011783 414.59816906 55.0958956 412.90197909 51.88671875 411.1796875 C49.9921859 410.13021121 48.09765471 409.08073194 46.203125 408.03125 C45.21844238 407.49274414 44.23375977 406.95423828 43.21923828 406.39941406 C38.22966928 403.6614032 33.27832308 400.85619397 28.32421875 398.0546875 C26.88369141 397.24402832 26.88369141 397.24402832 25.4140625 396.41699219 C19.04723452 392.82471939 12.74687281 389.13938451 6.53759766 385.28051758 C3.58827671 383.33692744 3.58827671 383.33692744 0.19921875 382.7421875 C-1.11837194 375.67511016 -1.11837194 375.67511016 0.19921875 371.8046875 C2.36129893 369.57504231 3.89599197 368.63143349 7.03125 368.4375 C12.23122941 369.16830792 16.70394666 372.17876788 21.19921875 374.7421875 C21.92383301 375.15162598 22.64844727 375.56106445 23.39501953 375.98291016 C27.72097869 378.43057438 32.03338835 380.90101708 36.33984375 383.3828125 C43.64135369 387.58279609 50.99302067 391.692994 58.35839844 395.77978516 C62.80122893 398.24995444 67.2261299 400.72063043 71.54296875 403.40625 C79.66467182 408.46056483 79.66467182 408.46056483 89.00390625 409.41015625 C92.89782504 408.22535178 95.68582553 405.90122301 98.19921875 402.7421875 C99.89782855 397.64635811 99.96349413 393.479177 97.82421875 388.6171875 C95.44682326 386.0133734 93.74918531 384.72023882 90.76953125 382.97265625 C89.42930908 382.18616699 89.42930908 382.18616699 88.06201172 381.38378906 C83.21549597 378.60466814 78.33556673 375.88798826 73.44921875 373.1796875 C64.81728195 368.36602184 56.22470011 363.492248 47.69921875 358.4921875 C46.75594727 357.94361084 45.81267578 357.39503418 44.84082031 356.82983398 C43.54869629 356.0671521 43.54869629 356.0671521 42.23046875 355.2890625 C41.47314453 354.84401367 40.71582031 354.39896484 39.93554688 353.94042969 C38.19921875 352.7421875 38.19921875 352.7421875 37.19921875 350.7421875 C36.84627757 344.27159926 36.84627757 344.27159926 39.19921875 340.7421875 C43.23662425 339.49426216 45.64654236 339.0533263 49.55224609 340.78613281 C50.39223145 341.27178711 51.2322168 341.75744141 52.09765625 342.2578125 C53.54724731 343.08140259 53.54724731 343.08140259 55.02612305 343.92163086 C56.07324463 344.52241455 57.12036621 345.12319824 58.19921875 345.7421875 C60.48225043 347.00255406 62.76750233 348.25890531 65.0546875 349.51171875 C66.25909453 350.17537474 67.46327422 350.83944346 68.66723633 351.50390625 C71.19547796 352.89865965 73.72547298 354.2901628 76.2565918 355.6796875 C81.66317442 358.65213491 87.06191243 361.62700884 92.36328125 364.78515625 C93.08362549 365.21014404 93.80396973 365.63513184 94.54614258 366.07299805 C95.79975045 366.8186853 97.04543248 367.5779784 98.2800293 368.35473633 C102.82240151 371.0437618 106.06611065 371.18141221 111.19921875 370.7421875 C115.55866028 368.52133993 118.36752339 366.32142591 120.19921875 361.7421875 C120.92473301 357.85079282 121.34505441 354.58523783 119.1796875 351.10229492 C115.04641951 345.78757197 109.9412174 342.9277453 104.07421875 339.8046875 C102.00198903 338.66778715 99.93040246 337.52971395 97.859375 336.390625 C96.77156738 335.79733398 95.68375977 335.20404297 94.56298828 334.59277344 C89.42600863 331.76665166 84.34164099 328.85031212 79.2571106 325.93115234 C77.51025044 324.92884502 75.76207975 323.92886503 74.01342773 322.9296875 C68.43345543 319.74118703 62.85686263 316.54689864 57.28529358 313.34373474 C54.6941176 311.85444162 52.10180506 310.36713356 49.5093689 308.8800354 C48.26906486 308.16780501 47.02933065 307.45458132 45.79019165 306.74032593 C44.07245668 305.75024724 42.35268111 304.76371143 40.6328125 303.77734375 C39.65368896 303.214104 38.67456543 302.65086426 37.66577148 302.07055664 C29.44458639 297.64301352 19.24258426 299.02495087 10.57421875 301.5546875 C1.32889957 304.38404105 -7.58166525 308.19085178 -16.54956055 311.7800293 C-35.94509324 319.46227424 -55.83322461 324.35272958 -76.11328125 316.5546875 C-85.45521822 312.31173605 -97.85557045 303.60521449 -101.80078125 293.7421875 C-102.34152965 289.33641775 -102.21697706 285.55849516 -99.80078125 281.7421875 C-98.15942383 280.45288086 -98.15942383 280.45288086 -96.1953125 279.33203125 C-95.10198608 278.69177002 -95.10198608 278.69177002 -93.98657227 278.03857422 C-93.20338623 277.5901416 -92.4202002 277.14170898 -91.61328125 276.6796875 C-71.3475431 264.68762287 -53.22735536 249.58056987 -36.80078125 232.7421875 C-35.80194067 231.74102942 -34.80226603 230.74070051 -33.80078125 229.7421875 C-50.3337342 223.1860165 -65.54637369 226.700343 -82.36328125 230.3671875 C-99.02837442 234.00078658 -111.83888104 233.05640364 -127.30078125 225.6171875 C-129.24721903 224.69478944 -131.19506576 223.77535673 -133.14453125 222.859375 C-133.99208984 222.45315918 -134.83964844 222.04694336 -135.71289062 221.62841797 C-137.72958572 220.61194709 -137.72958572 220.61194709 -139.80078125 220.7421875 Z M-140.80078125 358.7421875 C-143.4903767 362.52459688 -145.621629 366.53291692 -147.72265625 370.65820312 C-148.86299047 372.86243612 -150.05937802 375.02868724 -151.26953125 377.1953125 C-152.09326627 378.68965335 -152.91619754 380.18443758 -153.73828125 381.6796875 C-154.12814209 382.37666748 -154.51800293 383.07364746 -154.91967773 383.79174805 C-157.23784449 388.10739063 -158.5293137 391.75924989 -158.80078125 396.7421875 C-157.21058604 401.95449403 -155.32902697 404.72335702 -150.80078125 407.7421875 C-148.51530977 408.88492324 -147.0319822 408.97346007 -144.48828125 409.0546875 C-143.72902344 409.09207031 -142.96976563 409.12945312 -142.1875 409.16796875 C-138.83452618 408.56981139 -137.31384686 407.02171186 -134.80078125 404.7421875 C-132.8379768 401.98874658 -132.8379768 401.98874658 -131.13671875 398.875 C-130.48960937 397.74191406 -129.8425 396.60882813 -129.17578125 395.44140625 C-128.50901665 394.2500548 -127.84235077 393.0586481 -127.17578125 391.8671875 C-126.50220458 390.68307991 -125.8277327 389.49948109 -125.15234375 388.31640625 C-118.06159262 377.26065285 -118.06159262 377.26065285 -116.80078125 364.7421875 C-119.11110535 359.73648528 -122.00616001 357.70991568 -126.80078125 355.40625 C-132.09306224 353.64904733 -136.6836176 355.36265098 -140.80078125 358.7421875 Z M-103.80078125 383.7421875 C-106.70845972 387.77835706 -108.95842758 392.14486497 -111.23828125 396.5546875 C-111.89595844 397.79248234 -112.55563355 399.02921766 -113.21728516 400.26489258 C-114.19483202 402.09208 -115.17047874 403.92004844 -116.13757324 405.75279236 C-119.04153832 411.25217861 -122.21060452 416.56066798 -125.48046875 421.84765625 C-127.61767238 426.53306421 -128.40119838 430.94093611 -126.73828125 435.9296875 C-123.8460287 440.12811862 -121.50882699 443.23580496 -116.3984375 444.19140625 C-111.70864717 444.39592342 -108.26361448 444.10703226 -104.31835938 441.26586914 C-100.95665627 437.89064568 -99.11666859 433.41498083 -97.05078125 429.1796875 C-96.01171628 427.10221406 -94.9713299 425.02540107 -93.9296875 422.94921875 C-93.41164551 421.90846191 -92.89360352 420.86770508 -92.35986328 419.79541016 C-90.8945193 416.92575907 -89.3562907 414.11811746 -87.765625 411.31640625 C-87.06228027 410.05969116 -87.06228027 410.05969116 -86.34472656 408.77758789 C-85.46622298 407.21648892 -84.57193518 405.66412553 -83.65917969 404.12280273 C-80.71465279 398.79475499 -80.20417776 394.66499953 -81.80078125 388.7421875 C-84.47436168 384.01200674 -87.72857088 382.46311602 -92.80078125 380.7421875 C-97.24690575 380.7421875 -100.28623636 381.00986816 -103.80078125 383.7421875 Z M-65.80078125 404.7421875 C-67.88859271 407.61176611 -67.88859271 407.61176611 -69.4921875 411.0625 C-69.80478012 411.6805954 -70.11737274 412.2986908 -70.43943787 412.93551636 C-71.43101462 414.904788 -72.39760819 416.8851055 -73.36328125 418.8671875 C-74.33541734 420.81968377 -75.31252687 422.76963505 -76.28996277 424.71948242 C-76.92108131 425.98242744 -77.54850128 427.24722798 -78.17207336 428.51391602 C-80.26011695 432.74328558 -82.51369323 436.82459966 -84.99902344 440.83251953 C-86.3048775 443.94286986 -85.76695034 446.57080761 -84.8125 449.7265625 C-82.83696772 453.66237199 -79.70952784 455.7878142 -75.80078125 457.7421875 C-73.79522624 458.01626135 -73.79522624 458.01626135 -71.55078125 458.0546875 C-70.803125 458.09207031 -70.05546875 458.12945312 -69.28515625 458.16796875 C-65.58085049 457.53311132 -63.68133236 456.16633961 -60.80078125 453.7421875 C-58.87700119 450.94532413 -57.40669357 447.97940639 -55.92578125 444.9296875 C-55.06578028 443.22361735 -54.2050937 441.51789264 -53.34375 439.8125 C-52.92013184 438.96204102 -52.49651367 438.11158203 -52.06005859 437.23535156 C-49.88257525 432.92428915 -47.55352442 428.69462696 -45.22509766 424.46362305 C-42.32141516 419.26597145 -42.32141516 419.26597145 -42.18359375 413.5234375 C-43.80282593 408.54642911 -45.12303142 405.5488374 -49.80078125 402.7421875 C-55.84207134 400.72842414 -60.44918739 401.3898749 -65.80078125 404.7421875 Z M-26.80078125 425.7421875 C-31.35308668 432.14756123 -34.96507796 439.27137595 -38.67578125 446.1796875 C-39.28164062 447.26056641 -39.8875 448.34144531 -40.51171875 449.45507812 C-43.57200167 455.189631 -45.61721003 459.40239267 -44.41186523 465.92822266 C-43.18948099 469.55679436 -41.222883 471.8919522 -37.96484375 473.83984375 C-35.52550453 474.85696895 -33.62675352 475.14246571 -30.98828125 475.2421875 C-30.17746094 475.29375 -29.36664063 475.3453125 -28.53125 475.3984375 C-23.03857525 474.07830966 -19.9418097 470.51631918 -16.94702148 465.85986328 C-15.02709698 462.46320968 -13.20856243 459.02425394 -11.42578125 455.5546875 C-10.79298328 454.35412282 -10.1588775 453.15424652 -9.5234375 451.95507812 C-4.60259346 442.86860854 -4.60259346 442.86860854 -3.80078125 432.7421875 C-5.16136375 429.13368609 -7.08341584 426.37756829 -9.98828125 423.8046875 C-15.74155526 421.63122843 -22.03998773 421.51037104 -26.80078125 425.7421875 Z M13.19921875 440.7421875 C12.89628906 441.49242187 12.59335937 442.24265625 12.28125 443.015625 C9.80768223 449.05874133 7.19222527 454.92144604 4.1171875 460.68359375 C2.99558688 462.82317765 2.99558688 462.82317765 3.19921875 465.7421875 C8.90293235 469.18346773 13.4827925 471.65286097 20.22265625 470.390625 C23.94002977 469.17109139 26.32108121 467.22229918 28.3046875 463.87890625 C29.84887022 460.19039992 29.7194414 456.66439245 29.19921875 452.7421875 C26.52267734 446.53747786 21.06665274 443.62479444 15.19921875 440.7421875 C14.53921875 440.7421875 13.87921875 440.7421875 13.19921875 440.7421875 Z " fill="#000000" transform="translate(270.80078125,12.2578125)"/>
<path d="M0 0 C4.29832057 3.67089687 7.46632326 8.21660148 8.03125 13.94921875 C8.06798828 15.32013672 8.06798828 15.32013672 8.10546875 16.71875 C8.16154297 18.07033203 8.16154297 18.07033203 8.21875 19.44921875 C7.13108496 27.32231707 2.1724699 32.7723352 -3.21484375 38.26171875 C-3.91094757 38.98530075 -4.60705139 39.70888275 -5.32424927 40.45439148 C-7.6089035 42.82285549 -9.9076673 45.17707141 -12.20703125 47.53125 C-13.80744525 49.18524618 -15.40737318 50.83971283 -17.00683594 52.49462891 C-21.15454207 56.77441479 -25.33310671 61.02242885 -29.52734375 65.2565918 C-31.24741934 66.99852997 -32.96118635 68.74671762 -34.66894531 70.50073242 C-37.18541653 73.08419193 -39.72111752 75.64732432 -42.26171875 78.20703125 C-43.01299042 78.98613358 -43.76426208 79.7652359 -44.53829956 80.56794739 C-50.46714384 86.47420879 -56.44058705 89.95598949 -64.83203125 90.96875 C-78.49417096 89.19773189 -87.1546499 77.8206966 -96.51342773 68.57495117 C-97.52116661 67.58387454 -98.53425453 66.59820895 -99.55249023 65.61791992 C-107.02239586 58.42259929 -114.06020797 51.31157818 -114.76953125 40.46875 C-114.3948373 34.34874876 -112.76889506 28.98486605 -108.265625 24.671875 C-101.24409155 19.24085465 -94.97887467 18.68236193 -86.20703125 19.53125 C-77.85153967 22.06639915 -71.08146089 31.41503744 -65.20703125 37.53125 C-60.1059224 33.27190829 -55.37870881 28.80004267 -50.734375 24.05078125 C-49.32646156 22.62536485 -47.91824956 21.20024331 -46.50976562 19.77539062 C-44.31883918 17.55345006 -42.13034623 15.32926556 -39.94702148 13.09985352 C-37.8204247 10.93085343 -35.68442886 8.77147657 -33.546875 6.61328125 C-32.89984116 5.9476265 -32.25280731 5.28197174 -31.58616638 4.59614563 C-22.48174352 -4.55919757 -11.17209107 -7.67105654 0 0 Z M-14.20703125 12.53125 C-20.86473092 18.09817522 -26.98831132 24.15864922 -33.10717773 30.30102539 C-34.76630445 31.96551277 -36.43071176 33.62458447 -38.09570312 35.28320312 C-43.17620416 40.36090648 -48.18115836 45.44429141 -52.82006836 50.93603516 C-56.00203607 54.59577412 -58.94762709 57.06480401 -63.58203125 58.78125 C-69.83426528 58.35006145 -72.75456948 54.08007569 -76.94677734 49.72314453 C-78.25216432 48.36883447 -79.56170373 47.01851668 -80.875 45.671875 C-82.2100521 44.29808831 -83.53202329 42.91145431 -84.83984375 41.51171875 C-85.45988281 40.86976563 -86.07992187 40.2278125 -86.71875 39.56640625 C-87.27006592 38.9825415 -87.82138184 38.39867676 -88.3894043 37.79711914 C-90.80716064 36.11329555 -92.32181828 36.15402721 -95.20703125 36.53125 C-97.46230861 38.31916765 -97.46230861 38.31916765 -97.22583008 40.73144531 C-95.72766752 44.84860999 -92.99640251 47.29426995 -89.90625 50.328125 C-88.95707451 51.27948334 -88.95707451 51.27948334 -87.98872375 52.25006104 C-86.6510278 53.58609966 -85.3083844 54.91720053 -83.96118164 56.24365234 C-81.90014281 58.27571732 -79.85842478 60.32580921 -77.81835938 62.37890625 C-76.51543305 63.6755956 -75.21143196 64.97120609 -73.90625 66.265625 C-73.2956926 66.87911804 -72.68513519 67.49261108 -72.05607605 68.12469482 C-71.47900406 68.68908264 -70.90193207 69.25347046 -70.30737305 69.83496094 C-69.80408981 70.33284119 -69.30080658 70.83072144 -68.78227234 71.34368896 C-66.77095448 72.86000462 -65.75765423 73.49115899 -63.20703125 73.53125 C-61.17323555 72.01167199 -59.54466022 70.56237891 -57.7800293 68.76708984 C-57.25114609 68.24857452 -56.72226288 67.7300592 -56.17735291 67.1958313 C-54.42820014 65.47383948 -52.69814196 63.73400855 -50.96875 61.9921875 C-49.76203739 60.79138002 -48.55465627 59.591244 -47.34663391 58.39175415 C-44.81572823 55.87274551 -42.29436731 53.34463238 -39.77905273 50.81005859 C-36.55135464 47.55948056 -33.29949484 44.33437632 -30.0398283 41.11589622 C-27.54049188 38.64211053 -25.05536106 36.15443425 -22.57422829 33.66240311 C-21.38063925 32.46732469 -20.1824318 31.27684086 -18.97961998 30.09104538 C-17.30061655 28.43195904 -15.64188095 26.75493827 -13.98706055 25.07177734 C-13.48480957 24.5832428 -12.98255859 24.09470825 -12.46508789 23.59136963 C-10.92044209 22.06180923 -10.92044209 22.06180923 -9.20703125 19.53125 C-9.11330466 16.7893879 -9.11330466 16.7893879 -10.20703125 14.53125 C-12.17461398 13.17104849 -12.17461398 13.17104849 -14.20703125 12.53125 Z " fill="#000000" transform="translate(309.20703125,98.46875)"/>
<path d="M0 0 C2.9375 1.4375 2.9375 1.4375 5 4 C6.29252053 8.30304973 6.50440653 11.75225754 4.8125 15.9375 C2.0431687 19.08880803 0.22696232 19.86947209 -3.9375 20.3125 C-7.45778025 19.95328773 -9.21797817 19.16379476 -12 17 C-14.3595588 13.2311484 -14.2156499 10.41860217 -13.59375 6.12890625 C-13 4 -13 4 -10.9375 1.4375 C-7.11155401 -0.43477144 -4.17838004 -0.80191132 0 0 Z " fill="#000000" transform="translate(106,195)"/>
<path d="M0 0 C2.92483867 1.82547936 5.43429205 3.86858411 7 7 C7.59873168 12.26883876 6.25400021 14.8846468 3 19 C-0.20173254 20.60086627 -3.52577059 20.49917089 -7 20 C-9.8100346 18.20636089 -11.50940468 16.98119065 -13 14 C-13.3751455 9.02932218 -13.15878799 5.94848498 -10 2 C-6.78446554 -0.32849047 -3.88978623 -0.54457007 0 0 Z " fill="#000000" transform="translate(419,204)"/>
</svg>
