<?xml version="1.0" standalone="no"?>
<svg fill="#000000" width="26" height="26" viewBox="0 0 100 100" version="1.1" xml:space="preserve" xmlns="http://www.w3.org/2000/svg" xmlns:xlink="http://www.w3.org/1999/xlink">

<g id="hairdryer" fill="#000" style=""/>

<g id="scissor" fill="#000" style=""/>

<g id="razor" fill="#000" style=""/>

<g id="razor_blade_1_" fill="#000" style=""/>

<g id="comb" fill="#000" style=""/>

<g id="shaving_machine" fill="#000" style=""/>

<g id="barbershop" fill="#000" style=""/>

<g id="barber_pole" fill="#000" style=""/>

<g id="hairstylist" fill="#000" style=""/>

<g id="kids" fill="#000" style=""/>

<g id="mature" fill="#000" style=""/>

<g id="woman" fill="#000" style=""/>

<g id="moustache" fill="#000" style="">

<g fill="#000" style="">

<path d="M95.8,19.3c-0.2-0.3-0.6-0.5-0.9-0.4c-0.1,0-9.9,0.9-23.5-4.8c-11.9-5-19.1,0.3-21.4,2.4c-2.3-2.1-9.5-7.4-21.4-2.4    C15,19.7,5.2,18.9,5.1,18.9c-0.4,0-0.7,0.1-0.9,0.4c-0.2,0.3-0.2,0.7-0.1,1c0.1,0.1,7.5,14.3,25.1,11.2    c16.1-2.8,20.2-0.2,20.2-0.2c0.3,0.2,0.8,0.2,1.2,0c0,0,4.2-2.6,20.3,0.2c1.7,0.3,3.3,0.4,4.8,0.4c14.1,0,20.2-11.5,20.3-11.7    C96.1,20,96,19.6,95.8,19.3z M71.2,29.6c-5.7-1-10-1.3-13.2-1.3c-4.7,0-7,0.7-8,1.2c-1.7-0.8-7.1-2.3-21.2,0.1    c-12.8,2.2-19.6-5.3-22-8.7c0,0,0,0,0,0c3.6,0,11.9-0.6,22.5-5c13.1-5.5,19.6,2.3,19.8,2.6c0.4,0.5,1.2,0.5,1.6,0    c0.1-0.1,6.7-8.1,19.8-2.6c10.6,4.4,18.9,5,22.5,5c0,0,0,0,0,0C90.8,24.3,84,31.8,71.2,29.6z" fill="#000" style=""/>

<path d="M80.8,35.1c-11.2,3.1-50.4,3.1-61.6,0c-1.1-0.3-2.2,0-3,0.7c-0.8,0.7-1.2,1.7-1.1,2.7c0.4,4.5,1.6,10.8,4.5,15.6    c0.2,0.3,0.4,0.4,0.7,0.5c0.3,0,0.6-0.1,0.8-0.3l3.3-3.1c1,4.2,4,14.7,7.8,19.2c0.2,0.2,0.5,0.4,0.8,0.4s0.6-0.1,0.8-0.4l3.2-3.8    c1,4.9,4.3,16.8,12.7,21.3C49.7,88,49.8,88,50,88s0.3,0,0.5-0.1c8.4-4.5,11.7-16.4,12.7-21.3l3.2,3.8c0.2,0.2,0.5,0.4,0.8,0.4    s0.6-0.1,0.8-0.4c3.8-4.5,6.7-15.1,7.8-19.2l3.3,3.1c0.2,0.2,0.5,0.3,0.8,0.3c0.3,0,0.6-0.2,0.7-0.5c2.9-4.8,4-11.1,4.5-15.6    c0.1-1-0.3-2-1.1-2.7C83,35.1,81.9,34.8,80.8,35.1z M79.4,52l-3.6-3.4c-0.3-0.2-0.6-0.3-1-0.2c-0.3,0.1-0.6,0.4-0.7,0.7    c0,0.1-3.1,13.3-7.1,19.1l-3.8-4.4c-0.3-0.3-0.7-0.4-1-0.3c-0.4,0.1-0.7,0.4-0.7,0.8c0,0.2-2.4,16.3-11.6,21.6    c-9.1-5.4-11.5-21.5-11.6-21.6c-0.1-0.4-0.3-0.7-0.7-0.8c-0.1,0-0.2,0-0.3,0c-0.3,0-0.6,0.1-0.8,0.4l-3.8,4.4    c-4-5.8-7-19-7.1-19.1c-0.1-0.4-0.3-0.6-0.7-0.7c-0.3-0.1-0.7,0-1,0.2L20.6,52c-2.2-4.3-3.2-9.7-3.6-13.7c0-0.4,0.1-0.7,0.4-1    c0.3-0.3,0.8-0.4,1.2-0.3c11.7,3.2,51,3.2,62.7,0c0.4-0.1,0.9,0,1.2,0.3c0.3,0.3,0.4,0.6,0.4,1C82.6,42.2,81.7,47.6,79.4,52z" fill="#000" style=""/>

</g>

</g>

<g id="hair_gel" fill="#000" style=""/>

<g id="shampoo" fill="#000" style=""/>

<g id="mirror" fill="#000" style=""/>

<g id="spray" fill="#000" style=""/>

<g id="apron" fill="#000" style=""/>

<g id="chair" fill="#000" style=""/>

<g id="mask" fill="#000" style=""/>

</svg>