<?xml version="1.0" standalone="no"?>
<svg fill="#000000" width="26" height="26" viewBox="0 0 64 64" id="Layer_1_1_" version="1.1" xml:space="preserve" xmlns="http://www.w3.org/2000/svg" xmlns:xlink="http://www.w3.org/1999/xlink">

<g fill="#0077b6" style="">

<path d="M23.149,28.571l0.72-0.36c3.17-1.584,7.089-1.585,10.262,0l0.714,0.358C35.409,28.851,36.04,29,36.669,29h0.26v-2h-0.26   c-0.32,0-0.642-0.076-0.928-0.219l-0.714-0.358c-3.728-1.861-8.328-1.861-12.051-0.001l-0.722,0.361   C21.971,26.925,21.651,27,21.331,27h-0.26v2h0.26C21.961,29,22.59,28.852,23.149,28.571z" fill="#0077b6" style=""/>

<path d="M45.143,25.308l-0.159-0.045C44.988,25.151,45,25.041,45,24.929c0-2.156-0.84-4.183-2.364-5.707   C39.646,16.232,38,12.257,38,8.029V1H20v7.029c0,4.228-1.646,8.203-4.636,11.192C13.84,20.746,13,22.773,13,24.929   c0,1.408,0.364,2.731,1,3.884v4.715c0,3.001,0.691,6.005,2,8.705v6.162c0,2.593,1.288,4.999,3.445,6.438L19.697,55H22V44.692   c0-1.489,0.265-2.943,0.748-4.309c2.1,2.744,3.252,6.073,3.252,9.587V63h18V49.971c0-4.228,1.646-8.203,4.636-11.192   C50.16,37.254,51,35.227,51,33.071C51,29.483,48.592,26.291,45.143,25.308z M16.508,20.934l6.023,0.072l3.425-5.137L28.434,20H34   v-2h-4.434l-2.014-3.357l6.691-1.673l-0.485-1.94l-8.375,2.094l-3.913,5.87l-3.227-0.039C20.67,15.841,22,12.041,22,8.029V3h14   v5.029c0,4.762,1.854,9.239,5.222,12.606C42.369,21.783,43,23.307,43,24.929C43,28.276,40.276,31,36.929,31h-0.259   c-0.938,0-1.877-0.222-2.715-0.641L33.236,30c-1.309-0.654-2.773-1-4.236-1s-2.928,0.346-4.236,1l-0.718,0.359   C23.208,30.778,22.269,31,21.331,31h-0.259C17.724,31,15,28.276,15,24.929C15,23.442,15.536,22.041,16.508,20.934z M20,44.692   v8.055c-1.263-1.083-2-2.665-2-4.353v-6.631l-0.105-0.211C16.655,39.075,16,36.3,16,33.528V31.2   c0.874,0.708,1.899,1.231,3.017,1.526C19.012,32.841,19,32.956,19,33.071c0,2.12,0.816,4.113,2.293,5.629   c-0.178,0.321-0.205,0.386-0.222,0.428C20.36,40.906,20,42.778,20,44.692z M47.222,37.364C43.854,40.731,42,45.208,42,49.971V61H28   V49.971c0-4.762-1.854-9.239-5.222-12.606C21.631,36.217,21,34.693,21,33.071c0-0.025,0.003-0.05,0.004-0.075   c0.023,0,0.045,0.003,0.068,0.003h0.259c1.247,0,2.496-0.295,3.61-0.852l0.718-0.359c2.064-1.032,4.619-1.032,6.684,0l0.718,0.359   C34.174,32.705,35.422,33,36.669,33h0.259c3.642,0,6.725-2.426,7.726-5.746C47.215,28.012,49,30.393,49,33.071   C49,34.693,48.369,36.217,47.222,37.364z" fill="#0077b6" style=""/>

<path d="M38.714,36.237c-2.795,1.118-6.039,0.983-8.73-0.363l-1.537-0.769l-0.895,1.789l1.537,0.769   c1.524,0.762,3.208,1.19,4.91,1.293V43.5l-4,3V53h2v-5.5l2.906-2.18l4.387,4.387l1.414-1.414L36,43.586v-4.649   c1.184-0.116,2.343-0.397,3.458-0.843l2.914-1.166l-0.743-1.857L38.714,36.237z" fill="#0077b6" style=""/>

</g>

</svg>