<?xml version="1.0" standalone="no"?>
<svg fill="#000000" width="26" height="26" viewBox="0 0 64 64" id="Layer_1_1_" version="1.1" xml:space="preserve" xmlns="http://www.w3.org/2000/svg" xmlns:xlink="http://www.w3.org/1999/xlink">

<g fill="#f15bb5" style="">

<path d="M24,15c-9.374,0-17,7.626-17,17v1h2v-1c0-8.271,6.729-15,15-15V15z" fill="#f15bb5" style=""/>

<rect height="2" width="2" x="7" y="35" fill="#f15bb5" style=""/>

<path d="M46.532,32.288l0.938,1.767c6.407-3.402,10.676-9.739,11.418-16.952l-1.989-0.205   C56.224,23.446,52.349,29.199,46.532,32.288z" fill="#f15bb5" style=""/>

<path d="M52,11h-3c-0.86,0-1.629-0.41-2.109-1.124c-0.479-0.714-0.568-1.581-0.242-2.377l1.714-4.188l-9.967-2.492L34.323,11H26h-1   h-1C12.42,11,3,20.42,3,32v12.528c0,2.772-0.655,5.547-1.895,8.025L1,52.764V55h11c1.333,0,2.452-0.879,2.842-2.083   C15.224,52.972,15.611,53,16,53c4.411,0,8-3.589,8-8c0-1.148-0.253-2.261-0.719-3.289L26,41.031V51h6V37.741   c0.089-0.095,0.174-0.192,0.26-0.29c2.976,2.356,4.74,5.924,4.74,9.76V60c0,1.654,1.346,3,3,3s3-1.346,3-3V37.974   C43.838,38.609,44.87,39,46,39h0.181l0.17-0.063C56.31,35.202,63,25.547,63,14.912V11H52z M39.604,3.182l6.033,1.508l-0.839,2.051   c-0.574,1.403-0.412,2.991,0.433,4.25c0.002,0.003,0.005,0.006,0.007,0.009h-8.761L39.604,3.182z M13,52c0,0.551-0.449,1-1,1H3.111   C4.348,50.361,5,47.443,5,44.528V32c0-10.477,8.523-19,19-19h1h1c3.86,0,7,3.14,7,7v10.192c0,4.137-2.803,7.728-6.817,8.731   l-4.851,1.213C16.426,41.363,13,45.751,13,50.808V52z M16,51c-0.338,0-0.671-0.036-1-0.091v-0.101c0-3.959,2.57-7.411,6.31-8.581   C21.756,43.079,22,44.022,22,45C22,48.309,19.309,51,16,51z M28,49v-8.57c0.707-0.275,1.378-0.612,2-1.016V49H28z M41,60   c0,0.551-0.449,1-1,1s-1-0.449-1-1V47.211c0-4.479-2.073-8.641-5.565-11.374C34.43,34.174,35,32.241,35,30.192V20   c0-2.826-1.312-5.349-3.356-7h14.051C42.861,14.992,41,18.28,41,22v10v2V60z M61,14.912c0,9.742-6.088,18.592-15.171,22.083   C44.254,36.906,43,35.597,43,34v-2V22c0-4.962,4.038-9,9-9h9V14.912z" fill="#f15bb5" style=""/>

</g>

</svg>