<?xml version="1.0" encoding="utf-8"?>

<!DOCTYPE svg PUBLIC "-//W3C//DTD SVG 1.1//EN" "http://www.w3.org/Graphics/SVG/1.1/DTD/svg11.dtd">
<!-- Uploaded to: SVG Repo, www.svgrepo.com, Generator: SVG Repo Mixer Tools -->
<svg height="800px" width="800px" version="1.1" id="_x32_" xmlns="http://www.w3.org/2000/svg" xmlns:xlink="http://www.w3.org/1999/xlink" 
	 viewBox="0 0 512 512"  xml:space="preserve">
<style type="text/css">
	.st0{fill:#000000;}
</style>
<g>
	<path class="st0" d="M471.78,276.233l0.114,0.107l-237.5-234.786l0.008,0.016c-26.765-26.78-62.007-40.235-97.092-40.213
		C102.222,1.335,66.988,14.789,40.216,41.57C13.431,68.341-0.024,103.584,0,138.673c-0.024,35.081,13.431,70.323,40.216,97.095
		l237.439,234.732l-0.065-0.069c26.772,26.78,62.006,40.235,97.103,40.212c35.081,0.023,70.316-13.432,97.088-40.204
		c26.788-26.78,40.242-62.022,40.22-97.111C512.023,338.239,498.568,302.997,471.78,276.233z M164.543,311.881
		c-0.069,0.214-0.119,0.413-0.191,0.628L63.327,212.633l0.008,0.016c-20.454-20.47-30.62-47.15-30.636-73.976
		c0.015-26.834,10.181-53.507,30.636-73.976c20.47-20.454,47.146-30.624,73.976-30.639c26.826,0.015,53.503,10.185,73.972,30.639
		l0.108,0.108l104.753,103.55c-20.662,4.335-39.32,11.962-55.704,21.78c-35.46,21.274-60.67,52.043-77.273,80.876
		C174.862,285.453,168.708,299.459,164.543,311.881z M448.66,447.311c-20.469,20.447-47.142,30.617-73.968,30.632
		c-26.838-0.015-53.514-10.177-73.984-30.639l-0.061-0.061L191.238,339.081c0.326-2.105,0.808-4.58,1.508-7.321
		c2.531-10.132,7.628-23.786,15.316-38.221c11.525-21.695,28.886-45.204,51.829-63.339c22.84-18.02,50.857-30.892,85.582-32.845
		l103.142,101.958l0.045,0.038c20.462,20.47,30.624,47.15,30.64,73.976C479.285,400.153,469.123,426.834,448.66,447.311z"/>
	<path class="st0" d="M81.477,170.66l35.747-85.456c-13.417,0-26.026,5.216-35.503,14.696
		C62.148,119.473,62.148,151.331,81.477,170.66z"/>
</g>
</svg>