<?xml version="1.0" encoding="UTF-8"?>
<svg version="1.1" xmlns="http://www.w3.org/2000/svg" width="512" height="512">
<path d="M0 0 C0.95496872 -0.01283524 1.90993744 -0.02567047 2.8938446 -0.03889465 C4.44069695 -0.04997505 4.44069695 -0.04997505 6.01879883 -0.0612793 C7.0831868 -0.06935104 8.14757477 -0.07742279 9.24421692 -0.08573914 C11.49954603 -0.09957627 13.75489606 -0.11030008 16.01025391 -0.11816406 C19.44515169 -0.1353446 22.87907889 -0.17923146 26.3137207 -0.22338867 C28.50707301 -0.23351873 30.7004335 -0.24203385 32.89379883 -0.2487793 C33.91491257 -0.26628738 34.93602631 -0.28379547 35.98808289 -0.30183411 C43.46928624 -0.27928739 48.54525965 1.33491839 54.49536133 5.8527832 C55.02516602 6.39290039 55.5549707 6.93301758 56.10083008 7.48950195 C56.64352539 8.02188477 57.1862207 8.55426758 57.74536133 9.1027832 C61.6693107 14.37776325 62.66392787 19.18413687 62.68273926 25.6710968 C62.68883036 26.39281089 62.69492146 27.11452497 62.70119715 27.85810918 C62.71775125 30.25924776 62.71306238 32.65985161 62.70825195 35.06103516 C62.71559678 36.78966825 62.72418421 38.51829643 62.73391724 40.24691772 C62.75610015 44.93095315 62.75906548 49.61481248 62.75716972 54.29889321 C62.75704986 58.21519499 62.76562077 62.13145969 62.77394724 66.04775113 C62.7931703 75.29129945 62.79606937 84.53475748 62.78930664 93.77832031 C62.78266881 103.29929488 62.80552237 112.81988174 62.84262037 122.3407777 C62.87335823 130.52786654 62.8846729 138.71483093 62.88078356 146.90197629 C62.87872002 151.78609633 62.88413388 156.66991471 62.90867615 161.55397987 C62.9310079 166.14983598 62.92901227 170.74506382 62.90874863 175.34092331 C62.90534975 177.02185623 62.91037905 178.70283197 62.92473221 180.38370705 C62.99654494 189.42150524 62.98339031 197.62280499 57.28833008 205.17700195 C49.78206724 212.4341405 41.60606277 214.64647292 31.41723633 214.57543945 C30.49547104 214.57830963 29.57370575 214.58117981 28.62400818 214.58413696 C26.68520489 214.58616767 24.74638065 214.58070775 22.80761719 214.56811523 C19.86256428 214.5520659 16.91888738 214.56798848 13.97387695 214.5871582 C12.07999375 214.58517524 10.1861114 214.58133046 8.29223633 214.57543945 C7.42321182 214.58151215 6.55418732 214.58758484 5.65882874 214.59384155 C-3.47875915 214.49028167 -10.36961519 212.24655751 -17.04760742 205.9543457 C-19.51387508 203.32018659 -21.71166992 200.89532392 -21.71166992 197.17700195 C-28.31166992 197.17700195 -34.91166992 197.17700195 -41.71166992 197.17700195 C-40.80416992 199.71387695 -39.89666992 202.25075195 -38.96166992 204.86450195 C-34.09404262 219.09824333 -31.16127349 234.12505646 -30.71166992 249.17700195 C-30.67170898 250.23145508 -30.63174805 251.2859082 -30.59057617 252.37231445 C-29.84795488 290.02758243 -41.83405685 326.33875341 -64.71166992 356.17700195 C-64.12901367 355.96495117 -63.54635742 355.75290039 -62.94604492 355.53442383 C-34.37034269 345.31276933 -34.37034269 345.31276933 -21.14916992 351.23950195 C-14.05870356 355.50569852 -9.14383864 360.47627893 -6.37182617 368.37231445 C-4.26386427 377.32803423 -5.01206275 386.19170954 -9.71166992 394.17700195 C-13.41942958 399.29208645 -17.40009562 402.24606246 -22.77416992 405.48950195 C-23.59216064 405.99457275 -24.41015137 406.49964355 -25.25292969 407.02001953 C-28.06533335 408.75102798 -30.8878806 410.46463543 -33.71166992 412.17700195 C-35.87586918 413.49709027 -38.03992581 414.81741245 -40.20385742 416.13793945 C-45.53975144 419.38983735 -50.88395811 422.62787155 -56.23103333 425.86134338 C-62.14889907 429.44018154 -68.06051109 433.02927348 -73.97128296 436.61981201 C-76.88195216 438.38788444 -79.79286878 440.15554927 -82.70385742 441.9230957 C-83.28098984 442.27353943 -83.85812225 442.62398315 -84.45274353 442.98504639 C-87.9718484 445.12160085 -91.49196502 447.2564778 -95.01286316 449.39007568 C-97.95445996 451.17267711 -100.89560343 452.95602576 -103.83666992 454.73950195 C-104.41440155 455.08974426 -104.99213318 455.43998657 -105.58737183 455.80084229 C-113.06446022 460.33508153 -120.51976425 464.90269684 -127.95703125 469.50195312 C-169.80561034 495.36509573 -169.80561034 495.36509573 -186.41218567 495.29725647 C-187.56403029 495.29853811 -187.56403029 495.29853811 -188.7391445 495.29984564 C-191.30789103 495.30149055 -193.87657201 495.29599526 -196.4453125 495.29052734 C-198.2883911 495.29024523 -200.13146981 495.29040367 -201.97454834 495.29096985 C-206.9761687 495.29125689 -211.9777651 495.28537518 -216.97937989 495.27839589 C-222.20709248 495.27214687 -227.43480561 495.27155733 -232.66252136 495.27037048 C-242.56112301 495.26726174 -252.45971362 495.2590545 -262.3583104 495.24902099 C-273.62785978 495.23784569 -284.89740968 495.23234583 -296.16696322 495.22732556 C-319.34853824 495.21687152 -342.53010346 495.1992809 -365.71166992 495.17700195 C-366.0081543 496.11415039 -366.30463867 497.05129883 -366.61010742 498.0168457 C-368.95602864 504.74681118 -373.64893721 507.94022473 -379.71166992 511.17700195 C-382.57981739 512.13305111 -384.44128154 512.31904331 -387.42333984 512.35400391 C-388.37830856 512.36683914 -389.33327728 512.37967438 -390.31718445 512.39289856 C-391.86403679 512.40397896 -391.86403679 512.40397896 -393.44213867 512.4152832 C-394.50652664 512.42335495 -395.57091461 512.4314267 -396.66755676 512.43974304 C-398.92288588 512.45358018 -401.1782359 512.46430399 -403.43359375 512.47216797 C-406.86849153 512.48934851 -410.30241873 512.53323536 -413.73706055 512.57739258 C-415.93041286 512.58752263 -418.12377334 512.59603776 -420.31713867 512.6027832 C-421.33825241 512.62029129 -422.35936615 512.63779938 -423.41142273 512.65583801 C-430.89262608 512.63329129 -435.96859949 511.01908552 -441.91870117 506.5012207 C-442.44850586 505.96110352 -442.97831055 505.42098633 -443.52416992 504.86450195 C-444.06686523 504.33211914 -444.60956055 503.79973633 -445.16870117 503.2512207 C-449.09265055 497.97624066 -450.08726772 493.16986704 -450.1060791 486.6829071 C-450.11217021 485.96119302 -450.11826131 485.23947894 -450.12453699 484.49589473 C-450.14109109 482.09475615 -450.13640222 479.69415229 -450.1315918 477.29296875 C-450.13893662 475.56433566 -450.14752406 473.83570747 -450.15725708 472.10708618 C-450.17943999 467.42305076 -450.18240532 462.73919143 -450.18050957 458.05511069 C-450.1803897 454.13880891 -450.18896061 450.22254421 -450.19728708 446.30625278 C-450.21651014 437.06270445 -450.21940921 427.81924643 -450.21264648 418.57568359 C-450.20600865 409.05470903 -450.22886221 399.53412216 -450.26596022 390.01322621 C-450.29669807 381.82613737 -450.30801275 373.63917298 -450.3041234 365.45202762 C-450.30205987 360.56790758 -450.30747372 355.6840892 -450.33201599 350.80002403 C-450.35434774 346.20416792 -450.35235211 341.60894008 -450.33208847 337.0130806 C-450.32868959 335.33214768 -450.3337189 333.65117194 -450.34807205 331.97029686 C-450.41988478 322.93249866 -450.40673016 314.73119892 -444.71166992 307.17700195 C-437.20540708 299.91986341 -429.02940262 297.70753098 -418.84057617 297.77856445 C-417.91881088 297.77569427 -416.99704559 297.7728241 -416.04734802 297.76986694 C-414.10854473 297.76783624 -412.16972049 297.77329615 -410.23095703 297.78588867 C-407.28590412 297.80193801 -404.34222723 297.78601543 -401.3972168 297.7668457 C-399.5033336 297.76882867 -397.60945125 297.77267345 -395.71557617 297.77856445 C-394.84655167 297.77249176 -393.97752716 297.76641907 -393.08216858 297.76016235 C-383.9445807 297.86372223 -377.05372465 300.1074464 -370.37573242 306.3996582 C-367.90946477 309.03381732 -365.71166992 311.45867999 -365.71166992 315.17700195 C-359.11166992 315.17700195 -352.51166992 315.17700195 -345.71166992 315.17700195 C-347.07291992 311.37168945 -347.07291992 311.37168945 -348.46166992 307.48950195 C-353.2021597 293.63912831 -356.26093392 278.83572077 -356.71166992 264.17700195 C-356.77161133 262.39036133 -356.77161133 262.39036133 -356.83276367 260.56762695 C-357.46986014 222.64164887 -345.80549547 186.29724677 -322.71166992 156.17700195 C-323.29432617 156.38905273 -323.87698242 156.60110352 -324.47729492 156.81958008 C-353.05299716 167.04123457 -353.05299716 167.04123457 -366.27416992 161.11450195 C-373.31636686 156.87734817 -378.31177211 151.90203538 -381.04370117 144.0402832 C-383.25730334 134.55156746 -382.22693313 126.65344079 -377.90307617 117.9934082 C-371.76444724 110.10401166 -362.35450611 105.34093907 -353.89916992 100.30200195 C-352.6652349 99.56051757 -351.43168165 98.81839756 -350.19848633 98.07568359 C-347.64268711 96.53713049 -345.08529183 95.00128564 -342.52661133 93.4675293 C-337.1155069 90.22169111 -331.72129164 86.94808135 -326.32827759 83.67230225 C-324.57772253 82.60906757 -322.82671337 81.5465835 -321.07568359 80.48413086 C-313.26922215 75.74496234 -305.48509422 70.97018083 -297.71166992 66.17700195 C-287.61666847 59.95231309 -277.49685159 53.76982951 -267.35058594 47.62915039 C-266.1831614 46.92248671 -265.01576239 46.21578085 -263.84838867 45.5090332 C-263.26813431 45.1577536 -262.68787994 44.806474 -262.09004211 44.44454956 C-258.39085509 42.20240754 -254.70121396 39.94529227 -251.01763916 37.67759705 C-248.50178449 36.1292382 -245.9831199 34.5854817 -243.46429443 33.04196167 C-242.27657989 32.31239526 -241.09020179 31.58064753 -239.90533447 30.84646606 C-227.74274941 23.31212715 -216.24537471 16.81612092 -201.61242676 16.93649292 C-200.83788352 16.93478407 -200.06334027 16.93307522 -199.26532602 16.93131459 C-196.69200542 16.92804264 -194.11895053 16.93898518 -191.5456543 16.94995117 C-189.69228115 16.95051578 -187.83890756 16.95019775 -185.98553467 16.94906616 C-180.96959998 16.9484936 -175.95376144 16.96023236 -170.93784904 16.97421408 C-165.6901384 16.98673746 -160.44242543 16.98789321 -155.19470215 16.99026489 C-145.26431014 16.99647493 -135.3339623 17.01287933 -125.40358973 17.03296387 C-114.09528214 17.05533768 -102.78697241 17.06632003 -91.47864819 17.07635474 C-68.2229643 17.09724596 -44.96731959 17.1324127 -21.71166992 17.17700195 C-21.41518555 16.23985352 -21.11870117 15.30270508 -20.81323242 14.3371582 C-18.46731121 7.60719273 -13.77440264 4.41377917 -7.71166992 1.17700195 C-4.84352245 0.2209528 -2.9820583 0.0349606 0 0 Z " fill="#010100" transform="translate(449.711669921875,-0.177001953125)"/>
<path d="M0 0 C0.09796875 0.76183594 0.1959375 1.52367188 0.296875 2.30859375 C1.67629944 11.83375735 4.31624389 19.18483535 10 27 C10.804375 28.2065625 10.804375 28.2065625 11.625 29.4375 C19.24727503 37.66153359 30.25399854 43.55209171 41.56384277 44.13130188 C42.92732849 44.13652107 42.92732849 44.13652107 44.31835938 44.1418457 C45.35714233 44.14888016 46.39592529 44.15591461 47.46618652 44.16316223 C49.13808044 44.16940865 49.13808044 44.16940865 50.84375 44.17578125 C53.22917536 44.19899347 55.61459204 44.22311136 58 44.24804688 C61.74094335 44.28302039 65.48157 44.31243352 69.22265625 44.32592773 C72.84674128 44.34154051 76.46991126 44.38184675 80.09375 44.42578125 C81.74135315 44.42291862 81.74135315 44.42291862 83.42224121 44.41999817 C100.81857638 44.68962391 114.99888487 52.51323025 128.69750977 62.54711914 C132.9082113 65.61484139 137.02629498 68.12137328 141.6875 70.4375 C148.5408135 74.32291681 150.51483485 79.78043794 153 87 C153.44859375 88.20398438 153.8971875 89.40796875 154.359375 90.6484375 C167.15151646 126.54168148 164.74486833 166.99967628 148.5234375 201.34765625 C142.86938442 212.83818466 136.19507268 223.17083147 128 233 C127.54125488 233.55510254 127.08250977 234.11020508 126.60986328 234.68212891 C115.50864792 247.93402985 104.00946448 255.88949832 87.671875 261.0078125 C86.14512789 261.5069713 84.61911802 262.00839008 83.09381104 262.51193237 C79.12966516 263.813826 75.15621429 265.08450924 71.17987061 266.34857178 C67.10692493 267.65001967 63.04434764 268.98307148 58.98046875 270.3125 C53.07236977 272.23974082 47.16124633 274.15707429 41.24121094 276.04736328 C40.05686462 276.42579376 38.87251831 276.80422424 37.65228271 277.19412231 C35 278 35 278 34 278 C33.92523438 277.20078125 33.85046875 276.4015625 33.7734375 275.578125 C32.35077501 263.6947089 28.07901726 253.09939305 19 245 C3.90522095 233.20038941 -11.57642046 233.42818165 -29.875 233.4375 C-65.26353095 233.39875909 -65.26353095 233.39875909 -78.125 226.4375 C-78.7847583 226.095979 -79.4445166 225.75445801 -80.12426758 225.40258789 C-85.25137996 222.6467727 -89.78063419 219.33608111 -94.26245117 215.63793945 C-97.94839643 212.63710986 -101.63891628 210.62354967 -105.9375 208.625 C-113.17005813 204.83941135 -115.32074459 200.52705773 -118 193 C-118.28568848 192.24879883 -118.57137695 191.49759766 -118.86572266 190.72363281 C-132.45539527 154.88663716 -131.55952808 115.13886913 -116.3125 79.9375 C-110.34636731 66.71066947 -102.56331033 54.90523132 -93 44 C-92.30519531 43.17242187 -91.61039063 42.34484375 -90.89453125 41.4921875 C-80.22214251 29.08966652 -70.22187299 21.70831943 -54.70703125 16.89453125 C-53.18256471 16.39715706 -51.65895199 15.89715916 -50.13615417 15.3946991 C-46.1785248 14.09687539 -42.21008835 12.83601984 -38.23815918 11.58276367 C-34.17373026 10.29211164 -30.1219484 8.96288542 -26.06835938 7.63867188 C-20.1696455 5.71976071 -14.26814594 3.80995887 -8.35473633 1.93676758 C-7.17261063 1.5613533 -5.99048492 1.18593903 -4.77253723 0.79914856 C-2 0 -2 0 0 0 Z " fill="#FCDA00" transform="translate(239,117)"/>
<path d="M0 0 C23.56482961 0 38.35177374 2.17726819 55.625 16.9375 C70.79807442 29.39590296 89.51292572 33.14453793 108.61328125 33.10546875 C110.85352527 33.11892302 113.09376031 33.13394584 115.33398438 33.15039062 C118.82283 33.17318393 122.31065037 33.1875066 125.79956055 33.17504883 C151.92986072 33.10675603 151.92986072 33.10675603 163 42.5625 C163.99 43.7690625 163.99 43.7690625 165 45 C165.721875 45.845625 166.44375 46.69125 167.1875 47.5625 C170.34897236 51.81413524 171.22053595 54.38036603 171.36328125 59.8046875 C170.85811258 62.85742722 169.4109802 65.26571577 168 68 C167.11875961 68.00364563 166.23751923 68.00729126 165.32957458 68.01104736 C156.96054246 68.04916203 148.59189078 68.1062766 140.22312832 68.18390274 C135.92225722 68.22314854 131.62158386 68.25544773 127.32055664 68.27099609 C123.1575897 68.28631558 118.99516726 68.32102479 114.83244514 68.36830902 C113.25676309 68.38296724 111.68100323 68.3910319 110.10525322 68.39188385 C96.3546911 68.40677331 83.72547637 70.35644783 71.4375 77 C70.46973633 77.495 70.46973633 77.495 69.48242188 78 C61.81067299 81.88723969 61.81067299 81.88723969 56 88 C55.38296461 92.05480401 55.67961899 93.54369977 58.0625 96.9375 C60.85180864 99.33973726 60.85180864 99.33973726 64.29296875 98.8671875 C68.33761544 97.92102147 70.8236771 96.50758548 74.25 94.1875 C83.53613123 88.12856932 92.73822543 84.77141584 103.86181641 85.0168457 C105.25995485 85.04215136 106.65810307 85.06692081 108.05625916 85.0912323 C108.79511793 85.10554983 109.53397671 85.11986736 110.29522514 85.13461876 C159.42283583 86.19398709 159.42283583 86.19398709 206.45675659 73.75138855 C216.01182595 69.85142418 225.77602484 66.63816687 235.57421875 63.4140625 C236.45912931 63.12258457 237.34403988 62.83110664 238.25576591 62.53079605 C241.89107219 61.33411698 245.52692115 60.13911128 249.16363811 58.94672585 C257.93988534 56.06911313 266.70350183 53.15436918 275.46275139 50.22546768 C277.94149542 49.39712214 280.42097619 48.57101074 282.90052795 47.74508667 C290.51518312 45.20413136 298.11353636 42.62672231 305.68066406 39.94726562 C306.35715563 39.70890362 307.03364719 39.47054161 307.7306385 39.22495651 C310.85608641 38.12359309 313.97678778 37.01280131 317.09140015 35.88092041 C327.25926649 32.28109031 327.25926649 32.28109031 333 33 C337.30498234 35.23527929 340.23023809 37.41943977 342 42 C342 48.75159236 342 48.75159236 339.16015625 52.296875 C334.82163989 56.35872786 329.50300983 59.20358067 324.4375 62.25 C323.27874673 62.95387113 322.12038892 63.65839363 320.96240234 64.36352539 C318.53546421 65.8396536 316.10600578 67.31149729 313.67431641 68.77978516 C310.12594188 70.92249397 306.58372763 73.07520512 303.04296875 75.23046875 C294.82781746 80.22876695 286.60324483 85.21149264 278.37841797 90.19384766 C274.77255984 92.37832162 271.16724069 94.56368257 267.5625 96.75 C266.97390198 97.10697968 266.38530396 97.46395935 265.77886963 97.83175659 C257.5022473 102.85339441 249.25649074 107.9224265 241.03417969 113.0324707 C233.4887013 117.71443566 225.90420298 122.33102932 218.3125 126.9375 C217.42401367 127.47673096 217.42401367 127.47673096 216.51757812 128.02685547 C213.70185643 129.73527969 210.88421761 131.44015028 208.06103516 133.13623047 C206.15805082 134.29489871 204.26911608 135.47740452 202.40380859 136.69580078 C190.07747971 144.62111117 178.01707213 145.58057915 163.81713867 145.45410156 C162.02214076 145.45297092 160.22714101 145.45361117 158.43214417 145.45587158 C153.59819191 145.45701119 148.76464313 145.43362489 143.93078399 145.40557575 C138.86462859 145.38043553 133.79846219 145.3782102 128.73225403 145.37347412 C119.15612098 145.36108124 109.58017232 145.32830988 100.00412017 145.28807616 C87.0516952 145.23484716 74.0992192 145.21338317 61.1467123 145.19006729 C40.76433697 145.15254557 20.3823506 145.07283024 0 145 C0 97.15 0 49.3 0 0 Z " fill="#FDDEB0" transform="translate(85,333)"/>
<path d="M0 0 C1.79470302 0.00084758 3.58940708 0.00036858 5.3841095 -0.00132751 C10.22637145 -0.00218379 15.06840779 0.01538213 19.91061759 0.03639436 C24.9821327 0.05522275 30.0536537 0.05691644 35.12519836 0.06047058 C44.71552554 0.069773 54.3057494 0.09436227 63.8960312 0.12451905 C76.86481049 0.16440924 89.83361828 0.18053251 102.8024435 0.1980257 C123.21643612 0.22618473 143.63021077 0.2859663 164.04418945 0.34057617 C164.04418945 48.19057617 164.04418945 96.04057617 164.04418945 145.34057617 C141.45411835 145.34057617 128.57170845 143.92699622 111.04418945 130.34057617 C94.23340209 117.5986418 75.7541998 112.19185385 54.8449707 112.23510742 C52.64378904 112.22164881 50.44261649 112.20662519 48.24145508 112.19018555 C44.80306193 112.16741473 41.3657043 112.15304344 37.92724609 112.16552734 C12.6129595 112.23284774 12.6129595 112.23284774 1.16918945 103.02807617 C0.46793945 102.14120117 -0.23331055 101.25432617 -0.95581055 100.34057617 C-1.49077148 99.67026367 -2.02573242 98.99995117 -2.5769043 98.30932617 C-6.44638242 93.09044574 -7.91248699 89.8247165 -6.95581055 83.34057617 C-5.9979518 81.3200548 -5.00357948 79.31596987 -3.95581055 77.34057617 C-3.10549255 77.33248932 -2.25517456 77.32440247 -1.37908936 77.31607056 C6.68174287 77.2377389 14.74241677 77.15033594 22.80304337 77.05304909 C26.94589215 77.00335918 31.08871874 76.95702966 35.23168945 76.91870117 C39.23889096 76.88149973 43.24589336 76.83505168 47.25292206 76.78251266 C48.77248346 76.76415193 50.29208724 76.74897844 51.81171417 76.73723221 C71.74955105 76.57777735 89.93322493 72.71820677 106.04418945 60.34057617 C108.01714273 57.4178918 108.04738592 56.43167552 107.91918945 52.77807617 C107.31104065 49.38318618 107.31104065 49.38318618 105.41918945 47.34057617 C101.96197584 45.88490728 99.47952773 46.07224163 96.04418945 47.34057617 C93.27538588 48.98980132 90.61614696 50.77177117 87.93481445 52.55932617 C76.16620934 59.81133148 62.66532124 60.62780447 49.19072723 60.61497116 C46.90881981 60.61398903 44.62736228 60.62714404 42.34552002 60.64395142 C35.8657168 60.68971331 29.38596566 60.71478943 22.90600586 60.72143555 C18.91843967 60.72650698 14.93135023 60.75103086 10.94394684 60.78676224 C9.44360493 60.79642534 7.94319633 60.79896776 6.44283295 60.79359055 C-3.87712283 60.75833589 -13.08602775 62.16151742 -22.95581055 65.34057617 C-23.71028221 65.57967209 -24.46475388 65.81876801 -25.24208832 66.06510925 C-31.48473822 68.05088561 -37.69757421 70.12267612 -43.90893555 72.20385742 C-45.93672613 72.87996137 -47.96462168 73.55575059 -49.99261475 74.23124695 C-54.2430171 75.64807751 -58.49237881 77.06797267 -62.7409668 78.49023438 C-68.04411739 80.26537638 -73.34937582 82.0341087 -78.6554184 83.80058479 C-83.86600041 85.53595559 -89.07512268 87.27568473 -94.28393555 89.01635742 C-95.31008469 89.35899754 -96.33623383 89.70163765 -97.39347839 90.0546608 C-108.75376924 93.85211851 -120.08621317 97.71434813 -131.37182617 101.72875977 C-132.86310846 102.25737814 -132.86310846 102.25737814 -134.38451767 102.79667568 C-139.09400214 104.46686358 -143.79836371 106.14919268 -148.49468994 107.85603333 C-150.16873318 108.45316844 -151.84293871 109.04984884 -153.51733398 109.64599609 C-154.2585273 109.92107939 -154.99972061 110.19616268 -155.76337433 110.47958183 C-160.69118238 112.21496874 -164.72657486 112.67799982 -169.95581055 112.34057617 C-173.05291618 110.80083865 -175.39386024 108.46447679 -176.95581055 105.34057617 C-177.22924805 103.13354492 -177.22924805 103.13354492 -177.33081055 100.52807617 C-177.40428711 99.2499707 -177.40428711 99.2499707 -177.47924805 97.94604492 C-176.59238432 93.53158145 -173.61966844 91.49411411 -170.02709961 89.00341797 C-167.67426154 87.48773896 -165.29133525 86.0336995 -162.89331055 84.59057617 C-161.98137939 84.03402344 -161.06944824 83.4774707 -160.12988281 82.90405273 C-157.0759796 81.04269401 -154.01594231 79.19167428 -150.95581055 77.34057617 C-148.74711801 75.99741667 -146.53879384 74.65365127 -144.33081055 73.30932617 C-139.01922465 70.07704138 -133.70310154 66.85229771 -128.38511658 63.6305542 C-121.9058936 59.70515097 -115.43079255 55.77296957 -108.95581055 51.84057617 C-106.62512605 50.42513801 -104.2944016 49.00976569 -101.96362305 47.59448242 C-101.3865007 47.24404373 -100.80937836 46.89360504 -100.21476746 46.532547 C-96.69568502 44.39601273 -93.17559364 42.26115136 -89.65472412 40.12756348 C-86.71308952 38.34494529 -83.77186218 36.56165596 -80.83081055 34.77807617 C-79.96770264 34.25470673 -79.96770264 34.25470673 -79.0871582 33.72076416 C-72.65849597 29.82123019 -66.23913755 25.90726118 -59.83862305 21.96166992 C-58.96607376 21.42385139 -58.96607376 21.42385139 -58.07589722 20.87516785 C-55.32576991 19.17928253 -52.57713205 17.48103924 -49.83032227 15.77978516 C-47.85349978 14.55839012 -45.87325849 13.34250865 -43.8894043 12.13256836 C-41.89348682 10.91335778 -39.90676157 9.67899851 -37.9284668 8.43139648 C-36.92686523 7.81619141 -35.92526367 7.20098633 -34.89331055 6.56713867 C-34.01545898 6.01880371 -33.13760742 5.47046875 -32.2331543 4.90551758 C-21.7765557 -0.08753941 -11.3306596 -0.07535532 0 0 Z " fill="#FDDEB0" transform="translate(262.955810546875,33.659423828125)"/>
<path d="M0 0 C2.69969316 0.78378189 4.46491432 2.15815059 6.10546875 4.4296875 C7.85935545 8.92556608 7.28218371 13.82884375 6.9375 18.5625 C7.824375 18.459375 8.71125 18.35625 9.625 18.25 C20.36658178 18.2717882 31.06182281 25.12021634 38.75 32.125 C39.8328125 33.3315625 39.8328125 33.3315625 40.9375 34.5625 C41.618125 35.305 42.29875 36.0475 43 36.8125 C47.7520114 43.55729037 50.34755426 50.23300422 48.9375 58.5625 C47.375 61.625 47.375 61.625 44.9375 63.5625 C40.99951128 64.77969651 38.96081412 65.02764278 35.1875 63.3125 C32.8123533 60.40954293 32.35116442 58.82685859 31.5 55.25 C29.8922427 48.61579268 27.41457604 44.71415597 21.5703125 41.09765625 C16.69740294 38.54271127 12.31997761 37.10035075 6.9375 35.5625 C6.9375 49.4225 6.9375 63.2825 6.9375 77.5625 C10.8975 78.2225 14.8575 78.8825 18.9375 79.5625 C31.04875484 84.03026101 40.324935 90.95922851 46.84375 102.16796875 C49.99934151 109.07646016 50.09238943 117.58987205 47.99609375 124.80078125 C43.5351982 136.02993211 36.62811414 142.92302445 25.7265625 148.08203125 C19.19228653 150.82706002 14.08943943 152.69744225 6.9375 152.5625 C7.02451172 153.75746094 7.02451172 153.75746094 7.11328125 154.9765625 C7.52836691 164.72514581 7.52836691 164.72514581 4.9375 168.3125 C1.63441942 170.78981044 -0.07243451 171.49341504 -4.125 171.125 C-6.82469316 170.34121811 -8.58991432 168.96684941 -10.23046875 166.6953125 C-11.98435545 162.19943392 -11.40718371 157.29615625 -11.0625 152.5625 C-11.990625 152.645 -12.91875 152.7275 -13.875 152.8125 C-23.10897349 152.77526624 -31.60111587 147.51414583 -39.0625 142.5625 C-39.97 141.964375 -40.8775 141.36625 -41.8125 140.75 C-48.58562222 134.16502006 -52.99635722 125.81861149 -53.625 116.375 C-53.5046236 112.8293679 -53.08565569 110.86386644 -50.5 108.375 C-47.0625 106.5625 -47.0625 106.5625 -43.4375 106.4375 C-39.30954761 107.81348413 -38.18968159 108.78084384 -36.0625 112.5625 C-35.73384125 114.01294441 -35.44495777 115.47274027 -35.1875 116.9375 C-34.17724763 122.09149937 -32.11193244 125.2281624 -28.0625 128.5625 C-22.55767862 131.98147473 -17.33335771 133.77082637 -11.0625 135.5625 C-11.0625 121.7025 -11.0625 107.8425 -11.0625 93.5625 C-13.3725 93.2325 -15.6825 92.9025 -18.0625 92.5625 C-29.56713632 90.08320628 -40.95349902 83.76407655 -47.85546875 74.03515625 C-53.06259682 65.61222463 -54.16127034 58.51362764 -53.0625 48.5625 C-48.60953121 35.65187907 -40.43616659 28.28489349 -28.48828125 22.265625 C-22.42167259 19.49804815 -17.80426308 18.43285071 -11.0625 18.5625 C-11.12050781 17.76585937 -11.17851562 16.96921875 -11.23828125 16.1484375 C-11.65336691 6.39985419 -11.65336691 6.39985419 -9.0625 2.8125 C-5.75941942 0.33518956 -4.05256549 -0.36841504 0 0 Z " fill="#050500" transform="translate(258.0625,170.4375)"/>
<path d="M0 0 C0.80433472 -0.0157608 1.60866943 -0.03152161 2.43737793 -0.04776001 C3.29271118 -0.03763885 4.14804443 -0.0275177 5.02929688 -0.01708984 C5.92040161 -0.02187347 6.81150635 -0.0266571 7.72961426 -0.03158569 C9.60898611 -0.03498007 11.48841738 -0.02580997 13.36767578 -0.00488281 C16.23929886 0.02189109 19.10701367 -0.00464446 21.97851562 -0.03662109 C23.80795131 -0.03331691 25.63738457 -0.0269105 27.46679688 -0.01708984 C28.32213013 -0.027211 29.17746338 -0.03733215 30.05871582 -0.04776001 C31.2652179 -0.0241188 31.2652179 -0.0241188 32.49609375 0 C33.54935852 0.00596695 33.54935852 0.00596695 34.62390137 0.01205444 C37.99974166 1.02111078 39.52270894 2.96787021 41.74804688 5.64697266 C42.37445927 8.89037418 42.37445927 8.89037418 42.37623596 12.63722229 C42.38333035 13.3287925 42.39042474 14.02036271 42.39773411 14.73288959 C42.41529946 17.04409459 42.39721925 19.35361445 42.37915039 21.66479492 C42.38428978 23.3240536 42.39157121 24.98330682 42.40083313 26.64254761 C42.41935161 31.14464818 42.4064065 35.64615675 42.38674283 40.1482327 C42.37036138 44.85891491 42.3791684 49.56955948 42.38426208 54.28025818 C42.38878316 62.18994611 42.37291124 70.09939756 42.3449707 78.0090332 C42.31290764 87.15629347 42.31293875 96.30312748 42.33018547 105.45041806 C42.34604263 114.24813217 42.33932296 123.04568988 42.32224846 131.84339714 C42.31537229 135.58856299 42.31641617 139.33360367 42.32379341 143.07876778 C42.33144808 147.48742306 42.3193572 151.89559249 42.2919445 156.30416489 C42.28505136 157.92309438 42.28497266 159.54206918 42.29216003 161.16099739 C42.30083441 163.36911136 42.28493581 165.57571884 42.26271057 167.78370667 C42.25990365 169.01978951 42.25709673 170.25587236 42.25420475 171.52941227 C41.65336571 175.23013904 40.66201433 176.3724967 37.74804688 178.64697266 C32.60420038 181.2188959 24.506538 180.00286201 18.78198242 180.05200195 C16.88954428 180.07358993 14.9972062 180.10770252 13.10522461 180.15454102 C10.37503541 180.22151467 7.64691016 180.24899427 4.91601562 180.26806641 C3.65170967 180.30981239 3.65170967 180.30981239 2.36186218 180.35240173 C1.56786514 180.34962723 0.7738681 180.34685272 -0.04418945 180.34399414 C-1.08437981 180.35945534 -1.08437981 180.35945534 -2.14558411 180.37522888 C-5.5235056 179.20734598 -7.42257436 176.59834957 -9.25195312 173.64697266 C-9.88115883 170.29893398 -9.88115883 170.29893398 -9.88687134 166.5811615 C-9.89467129 165.89352598 -9.90247124 165.20589047 -9.91050756 164.49741751 C-9.93036719 162.20548833 -9.91468901 159.91523091 -9.89892578 157.62329102 C-9.90570461 155.97535741 -9.91460923 154.32743138 -9.92547607 152.67951965 C-9.94824296 148.21255009 -9.9394445 143.74615882 -9.92358065 139.27917933 C-9.9109102 134.60232802 -9.92266474 129.92552577 -9.93051147 125.24867249 C-9.9396038 117.39624146 -9.92763013 109.54404569 -9.90380859 101.69165039 C-9.8765886 92.61419808 -9.88541941 83.53730712 -9.91294062 74.45986837 C-9.93563128 66.66350657 -9.93883229 58.86731374 -9.92574728 51.07092959 C-9.91795373 46.41557491 -9.91690867 41.76048411 -9.93342972 37.10514641 C-9.94787498 32.72922801 -9.9378522 28.35403349 -9.90895844 23.97819328 C-9.90234826 22.37258099 -9.90424421 20.76690776 -9.91527176 19.16131973 C-9.92894292 16.9686582 -9.9117979 14.77831407 -9.88687134 12.58580017 C-9.88498621 11.35931228 -9.88310108 10.13282438 -9.88115883 8.86917019 C-8.85935447 3.636453 -5.4760922 0.03102313 0 0 Z " fill="#01A8F3" transform="translate(26.251953125,315.35302734375)"/>
<path d="M0 0 C1.17647095 -0.01879967 1.17647095 -0.01879967 2.37670898 -0.03797913 C3.62689819 -0.01809181 3.62689819 -0.01809181 4.90234375 0.00219727 C6.20570679 -0.00142067 6.20570679 -0.00142067 7.53540039 -0.00511169 C9.36772233 -0.00413465 11.2000743 0.00922507 13.03222656 0.03417969 C15.83110186 0.06849633 18.62681925 0.05483079 21.42578125 0.03540039 C23.20964881 0.04229916 24.99350824 0.05197183 26.77734375 0.06469727 C28.02753296 0.05725746 28.02753296 0.05725746 29.30297852 0.04966736 C33.33211697 0.13102098 35.36435444 0.32870561 38.84375 2.54150391 C42.22160459 6.07759214 41.96858479 8.36655688 41.98028564 13.17793274 C41.98325677 13.858067 41.98622789 14.53820127 41.98928905 15.23894566 C41.99799394 17.52893832 41.9994858 19.81887881 42.00097656 22.10888672 C42.00560349 23.74636955 42.01062798 25.3838513 42.01602173 27.02133179 C42.02916029 31.4780181 42.03559358 35.93468933 42.04003239 40.39139199 C42.04296093 43.17445025 42.04706533 45.95750436 42.05153656 48.74056053 C42.06521568 57.44425415 42.07488015 66.14793833 42.07873845 74.85164195 C42.08321959 84.90581125 42.10076831 94.95984462 42.12973905 105.01397258 C42.15134274 112.78048397 42.16144204 120.54695708 42.16277957 128.3134982 C42.16382859 132.95434011 42.16975696 137.59505431 42.18759918 142.23586464 C42.20405708 146.60168138 42.20624651 150.96727413 42.19746017 155.33311081 C42.19668856 156.93551291 42.20104892 158.53792695 42.21091843 160.14029884 C42.2236042 162.32824137 42.21778016 164.51538654 42.20733643 166.70332336 C42.20880299 167.92763219 42.21026955 169.15194101 42.21178055 170.41335011 C41.80495254 173.93295939 40.95627995 175.81781339 38.83984375 178.63110352 C33.61681999 181.2426154 25.26348711 179.94480525 19.4465332 179.98120117 C17.505656 179.99775796 15.56483969 180.02504439 13.62426758 180.06323242 C10.8247111 180.11803692 8.02658337 180.13988015 5.2265625 180.15454102 C4.36181808 180.17721039 3.49707367 180.19987976 2.60612488 180.22323608 C1.79210709 180.22038605 0.97808929 180.21753601 0.1394043 180.21459961 C-0.57182083 180.22268646 -1.28304596 180.23077332 -2.01582336 180.23910522 C-5.4221447 179.27328074 -6.926977 177.32175749 -9.16015625 174.63110352 C-9.78936195 171.3904953 -9.78936195 171.3904953 -9.79507446 167.64758301 C-9.80287442 166.95671836 -9.81067437 166.26585372 -9.81871068 165.55405378 C-9.8386126 163.24520589 -9.82287532 160.93800972 -9.80712891 158.62915039 C-9.81390591 156.97151224 -9.82280951 155.31388162 -9.8336792 153.65626526 C-9.85646954 149.15824734 -9.84763744 144.66080296 -9.83178377 140.16277504 C-9.81912336 135.45522137 -9.83086528 130.74771674 -9.8387146 126.04016113 C-9.84781076 118.13467595 -9.83582416 110.22942433 -9.81201172 102.32397461 C-9.78480047 93.18462834 -9.79361466 84.04583977 -9.82114375 74.90650702 C-9.8438348 67.0592107 -9.84703493 59.21208226 -9.8339504 51.36476374 C-9.82615585 46.67809565 -9.82511435 41.99168969 -9.84163284 37.30503845 C-9.85607834 32.89876644 -9.84605483 28.49321332 -9.81716156 24.08701897 C-9.81055111 22.47011954 -9.8124478 20.85315959 -9.82347488 19.23628426 C-9.83714513 17.02824809 -9.82000183 14.82251355 -9.79507446 12.61462402 C-9.79318933 11.37946297 -9.79130421 10.14430191 -9.78936195 8.87171173 C-8.7854919 3.70146372 -5.44708513 0.00765445 0 0 Z " fill="#5FA816" transform="translate(453.16015625,16.368896484375)"/>
<path d="M0 0 C3.73982868 0.70121788 5.23671069 1.96946074 8 4.5625 C20.40814028 27.26031759 21.55302936 60.21891702 15 84.5625 C14.82839355 85.20654785 14.65678711 85.8505957 14.47998047 86.51416016 C8.49941143 108.46429155 -1.51445563 127.96770793 -17.61865234 144.16210938 C-18.86124627 145.42183344 -20.06789067 146.7167777 -21.26953125 148.015625 C-32.93869734 160.39922983 -54.73454919 176.43396001 -72.16015625 177.8125 C-75 177.5625 -75 177.5625 -77.875 175.5625 C-80.81148802 171.41686985 -80.7152453 169.56921711 -80 164.5625 C-76.9987188 160.68493232 -73.66619924 159.44464349 -69.125 157.8125 C-41.42183163 147.30685649 -21.06342119 126.24931922 -8.86376953 99.51611328 C3.0683918 72.52878852 3.20373616 43.48228579 -7.01171875 16 C-8.07436698 12.30383223 -8.32687982 9.38837513 -8 5.5625 C-5.54999553 2.17572911 -4.13607554 0.77551416 0 0 Z " fill="#040300" transform="translate(366,200.4375)"/>
<path d="M0 0 C2.87459336 1.99971712 4.62907801 3.48939028 5.484375 6.97265625 C5.625 9.0625 5.625 9.0625 5 13 C1.09016816 16.92510462 -3.60047172 18.72732076 -8.625 20.8125 C-38.49579838 33.68287615 -58.13532014 57.23942802 -70 87 C-70.80911109 89.66546408 -71.48051176 92.35307145 -72.125 95.0625 C-72.29386719 95.74376953 -72.46273437 96.42503906 -72.63671875 97.12695312 C-77.85626594 118.51887686 -75.73769142 140.53281331 -68.02734375 160.96875 C-66.62827883 165.09678947 -66.21852608 167.70189346 -67 172 C-69.43773529 175.44150865 -70.85817119 176.762119 -75 177.625 C-78.987796 176.79420917 -80.80893333 175.30064531 -83 172 C-96.25054986 147.84198531 -96.15221151 113.41333136 -88.8125 87.5625 C-78.7750803 54.2948666 -57.02004666 26.07701938 -26.47338867 9.31176758 C-6.48501861 -1.35732948 -6.48501861 -1.35732948 0 0 Z " fill="#030300" transform="translate(221,134)"/>
<path d="M0 0 C5.60500964 -0.09903517 11.20950762 -0.17154712 16.81518555 -0.21972656 C18.7212003 -0.23981546 20.62715362 -0.26709194 22.53295898 -0.30175781 C25.27603326 -0.35039642 28.01829125 -0.37299579 30.76171875 -0.390625 C31.61086349 -0.41127014 32.46000824 -0.43191528 33.33488464 -0.45318604 C37.42666113 -0.45473044 39.47207999 -0.33259516 43.01489258 1.89941406 C46.37150604 5.45128987 46.12874041 7.73519183 46.14044189 12.54682922 C46.14341302 13.22696349 46.14638414 13.90709775 46.1494453 14.60784215 C46.15815019 16.8978348 46.15964205 19.18777529 46.16113281 21.4777832 C46.16575974 23.11526604 46.17078423 24.75274779 46.17617798 26.39022827 C46.18931654 30.84691458 46.19574983 35.30358582 46.20018864 39.76028848 C46.20311718 42.54334673 46.20722158 45.32640084 46.21169281 48.10945702 C46.22537193 56.81315063 46.2350364 65.51683481 46.2388947 74.22053844 C46.24337584 84.27470773 46.26092456 94.32874111 46.2898953 104.38286906 C46.31149899 112.14938045 46.32159829 119.91585356 46.32293582 127.68239468 C46.32398484 132.32323659 46.32991321 136.9639508 46.34775543 141.60476112 C46.36421333 145.97057787 46.36640276 150.33617062 46.35761642 154.70200729 C46.35684481 156.3044094 46.36120517 157.90682343 46.37107468 159.50919533 C46.38376045 161.69713785 46.37793641 163.88428302 46.36749268 166.07221985 C46.36895924 167.29652867 46.3704258 168.5208375 46.3719368 169.78224659 C45.96510879 173.30185588 45.1164362 175.18670988 43 178 C39.99686252 179.50156874 37.20932478 179.09281204 33.875 179.0625 C32.59367187 179.05347656 31.31234375 179.04445312 29.9921875 179.03515625 C28.51105469 179.01775391 28.51105469 179.01775391 27 179 C27.16238096 178.48261544 27.32476192 177.96523088 27.49206352 177.43216801 C28.15096629 174.27712343 28.12600792 171.31004113 28.12698364 168.08531189 C28.12932363 167.04205453 28.12932363 167.04205453 28.13171089 165.97772127 C28.13569873 163.64780499 28.13253983 161.31795388 28.12939453 158.98803711 C28.13074954 157.31745872 28.13253004 155.64688063 28.13470459 153.9763031 C28.13926669 149.43928571 28.13749446 144.90229103 28.1343255 140.36527324 C28.13179603 135.6207579 28.13414105 130.87624453 28.13571167 126.13172913 C28.13753146 118.16488292 28.13513184 110.19804597 28.13037109 102.23120117 C28.12492697 93.01419773 28.12669298 83.7972164 28.1321975 74.58021349 C28.1367318 66.67186924 28.13737767 58.76353165 28.13475883 50.85518652 C28.13319805 46.12953266 28.13299691 41.4038892 28.13629532 36.67823601 C28.13917869 32.23694508 28.13718972 27.79568274 28.13140106 23.35439491 C28.13007606 21.72213158 28.13046321 20.08986584 28.13266373 18.45760345 C28.13538532 16.23427104 28.13198169 14.01103096 28.12698364 11.78770447 C28.12660662 10.54202666 28.12622959 9.29634886 28.12584114 8.01292324 C28.13693941 4.95021317 28.13693941 4.95021317 27 2 C18.09 1.67 9.18 1.34 0 1 C0 0.67 0 0.34 0 0 Z " fill="#539313" transform="translate(449,17)"/>
<path d="M0 0 C2.22747326 -0.13563775 4.45734323 -0.23227853 6.6875 -0.3125 C8.54955078 -0.39951172 8.54955078 -0.39951172 10.44921875 -0.48828125 C15.00762544 0.13856235 16.1617393 1.44029297 19 5 C19.62641239 8.24340153 19.62641239 8.24340153 19.62818909 11.99024963 C19.63883067 13.02760495 19.63883067 13.02760495 19.64968723 14.08591694 C19.66725259 16.39712193 19.64917237 18.70664179 19.63110352 21.01782227 C19.6362429 22.67708094 19.64352433 24.33633416 19.65278625 25.99557495 C19.67130473 30.49767552 19.65835962 34.99918409 19.63869596 39.50126004 C19.6223145 44.21194225 19.63112152 48.92258683 19.63621521 53.63328552 C19.64073629 61.54297345 19.62486437 69.4524249 19.59692383 77.36206055 C19.56486077 86.50932081 19.56489188 95.65615482 19.5821386 104.8034454 C19.59799575 113.60115952 19.59127608 122.39871722 19.57420158 131.19642448 C19.56732541 134.94159033 19.56836929 138.68663101 19.57574654 142.43179512 C19.5834012 146.84045041 19.57131033 151.24861984 19.54389763 155.65719223 C19.53700448 157.27612173 19.53692579 158.89509652 19.54411316 160.51402473 C19.55278754 162.7221387 19.53688894 164.92874618 19.5146637 167.13673401 C19.51185678 168.37281686 19.50904985 169.60889971 19.50615788 170.88243961 C18.90531883 174.58316638 17.91396745 175.72552405 15 178 C12.11584117 179.44207941 9.58278472 179.09394887 6.375 179.0625 C5.18648437 179.05347656 3.99796875 179.04445313 2.7734375 179.03515625 C1.85820313 179.02355469 0.94296875 179.01195312 0 179 C0.33 178.01 0.66 177.02 1 176 C1.09455737 173.69877781 1.12629942 171.39483875 1.12698364 169.0916748 C1.12854363 168.38477367 1.13010362 167.67787253 1.13171089 166.94955015 C1.13570729 164.57506967 1.13253649 162.20065286 1.12939453 159.82617188 C1.13074917 158.12618472 1.13252946 156.42619785 1.13470459 154.72621155 C1.13927142 150.10442704 1.13749243 145.4826648 1.1343255 140.8608799 C1.13179805 136.02960779 1.13414052 131.19833761 1.13571167 126.36706543 C1.13753223 118.25300758 1.13513002 110.13895882 1.13037109 102.02490234 C1.12492869 92.63694069 1.12669143 83.24900076 1.1321975 73.86103964 C1.13673184 65.80834311 1.1373776 57.75565312 1.13475883 49.70295572 C1.13319783 44.89009654 1.13299747 40.07724757 1.13629532 35.26438904 C1.13917868 30.7402132 1.13718973 26.21606542 1.13140106 21.69189262 C1.13007597 20.02899154 1.13046335 18.3660881 1.13266373 16.70318794 C1.13538504 14.43820153 1.13198201 12.17330579 1.12698364 9.9083252 C1.12660662 8.63922554 1.12622959 7.37012589 1.12584114 6.06256866 C1.13990964 2.95804133 1.13990964 2.95804133 0 0 Z " fill="#0277BC" transform="translate(49,316)"/>
<path d="M0 0 C0 13.2 0 26.4 0 40 C-9.59771173 38.80028603 -15.59136007 36.35108698 -22 29 C-22.598125 28.4225 -23.19625 27.845 -23.8125 27.25 C-25.74479012 23.58881872 -25.62044285 20.03992903 -25 16 C-20.86694851 7.56857497 -14.04225108 3.61507509 -5.453125 0.6640625 C-3 0 -3 0 0 0 Z " fill="#FCD900" transform="translate(247,206)"/>
<path d="M0 0 C8.74573477 1.24939068 16.9138573 3.84667613 22.75 10.875 C25.49751109 15.12189031 25.72290514 18.01998683 25 23 C22.82166484 29.67115144 17.52280002 34.1989883 11.39453125 37.33203125 C7.30659477 39.04087324 4.48749615 40 0 40 C0 26.8 0 13.6 0 0 Z " fill="#FCD900" transform="translate(265,266)"/>
</svg>
