<?xml version="1.0" encoding="utf-8"?><!-- Uploaded to: SVG Repo, www.svgrepo.com, Generator: SVG Repo Mixer Tools -->
<svg width="800px" height="800px" viewBox="0 0 24 24" fill="none" xmlns="http://www.w3.org/2000/svg">
<path fill-rule="evenodd" clip-rule="evenodd" d="M4.15002 11.189V12.811C4.15106 13.6583 4.4815 14.4705 5.06858 15.0687C5.65565 15.6668 6.4512 16.0019 7.28002 16H16.67C17.4988 16.0019 18.2944 15.6668 18.8815 15.0687C19.4685 14.4705 19.799 13.6583 19.8 12.811V11.189C19.799 10.3416 19.4685 9.52945 18.8815 8.93131C18.2944 8.33317 17.4988 7.99813 16.67 7.99999H7.28002C6.4512 7.99813 5.65565 8.33317 5.06858 8.93131C4.4815 9.52945 4.15106 10.3416 4.15002 11.189Z" stroke="#000000" stroke-width="1.5" stroke-linecap="round" stroke-linejoin="round"/>
<path d="M15.6594 8C15.6594 7.58579 15.3236 7.25 14.9094 7.25C14.4952 7.25 14.1594 7.58579 14.1594 8H15.6594ZM14.1594 16C14.1594 16.4142 14.4952 16.75 14.9094 16.75C15.3236 16.75 15.6594 16.4142 15.6594 16H14.1594ZM8.29065 16C8.29065 16.4142 8.62644 16.75 9.04065 16.75C9.45486 16.75 9.79065 16.4142 9.79065 16H8.29065ZM9.79065 8C9.79065 7.58579 9.45486 7.25 9.04065 7.25C8.62644 7.25 8.29065 7.58579 8.29065 8H9.79065ZM14.1594 8V16H15.6594V8H14.1594ZM9.79065 16V8H8.29065V16H9.79065Z" fill="#000000"/>
<rect x="10.9969" y="13" width="2" height="1.95625" rx="0.978125" transform="rotate(-90 10.9969 13)" fill="#000000"/>
<rect x="11.486" y="12.5" width="1" height="0.978125" rx="0.489063" transform="rotate(-90 11.486 12.5)" stroke="#000000" stroke-linecap="round" stroke-linejoin="round"/>
</svg>