<?xml version="1.0" encoding="utf-8"?><!-- Uploaded to: SVG Repo, www.svgrepo.com, Generator: SVG Repo Mixer Tools -->
<svg width="800px" height="800px" viewBox="0 0 24 24" id="secure" xmlns="http://www.w3.org/2000/svg" class="icon multi-color"><title style="stroke-width: 2;">secure</title><path id="tertiary-fill" d="M19.44,12.05a11,11,0,0,1-6.56,8.57L12,21l-.88-.38a11,11,0,0,1-6.56-8.57A11.87,11.87,0,0,0,11,17.62L12,18l1-.38A11.87,11.87,0,0,0,19.44,12.05Z" style="fill: #b7b7b7; stroke-width: 2;"></path><path id="primary-stroke" d="M19.18,4.8,12,3,4.82,4.8a1,1,0,0,0-.76,1l.43,5.52a11,11,0,0,0,6.63,9.26L12,21l.88-.38a11,11,0,0,0,6.63-9.26l.43-5.52A1,1,0,0,0,19.18,4.8Z" style="fill: none; stroke: rgb(0, 0, 0); stroke-linecap: round; stroke-linejoin: round; stroke-width: 2;"></path><polyline id="secondary-stroke" points="9 11 11 13 15 9" style="fill: none; stroke: rgb(44, 169, 188); stroke-linecap: round; stroke-linejoin: round; stroke-width: 2;"></polyline></svg>